G04*
G04 #@! TF.GenerationSoftware,Altium Limited,Altium Designer,19.0.10 (269)*
G04*
G04 Layer_Physical_Order=1*
G04 Layer_Color=255*
%FSLAX44Y44*%
%MOMM*%
G71*
G01*
G75*
%ADD10R,0.9000X0.8000*%
%ADD11R,1.0000X1.0000*%
%ADD12R,1.0000X1.0000*%
%ADD13C,0.5080*%
%ADD14C,1.0000*%
%ADD15C,0.7000*%
%ADD16O,1.6000X2.0000*%
G36*
X145531Y-61719D02*
X145480Y-61258D01*
X145327Y-60845D01*
X145073Y-60480D01*
X144718Y-60165D01*
X144261Y-59897D01*
X143702Y-59679D01*
X143041Y-59509D01*
X142279Y-59387D01*
X141416Y-59314D01*
X140450Y-59290D01*
Y-54210D01*
X141416Y-54186D01*
X142279Y-54113D01*
X143041Y-53991D01*
X143702Y-53821D01*
X144261Y-53603D01*
X144718Y-53335D01*
X145073Y-53020D01*
X145327Y-52655D01*
X145480Y-52242D01*
X145531Y-51781D01*
Y-61719D01*
D02*
G37*
G36*
X105520Y-52242D02*
X105673Y-52655D01*
X105927Y-53020D01*
X106282Y-53335D01*
X106740Y-53603D01*
X107298Y-53821D01*
X107959Y-53991D01*
X108721Y-54113D01*
X109584Y-54186D01*
X110549Y-54210D01*
Y-59290D01*
X109584Y-59314D01*
X108721Y-59387D01*
X107959Y-59509D01*
X107298Y-59679D01*
X106740Y-59897D01*
X106282Y-60165D01*
X105927Y-60480D01*
X105673Y-60845D01*
X105520Y-61258D01*
X105470Y-61719D01*
Y-51781D01*
X105520Y-52242D01*
D02*
G37*
G36*
X95531Y-61719D02*
X95480Y-61258D01*
X95327Y-60845D01*
X95073Y-60480D01*
X94718Y-60165D01*
X94261Y-59897D01*
X93702Y-59679D01*
X93041Y-59509D01*
X92279Y-59387D01*
X91416Y-59314D01*
X90450Y-59290D01*
Y-54210D01*
X91416Y-54186D01*
X92279Y-54113D01*
X93041Y-53991D01*
X93702Y-53821D01*
X94261Y-53603D01*
X94718Y-53335D01*
X95073Y-53020D01*
X95327Y-52655D01*
X95480Y-52242D01*
X95531Y-51781D01*
Y-61719D01*
D02*
G37*
G36*
X155520Y-54351D02*
X155673Y-54782D01*
X155927Y-55163D01*
X156282Y-55493D01*
X156740Y-55773D01*
X157298Y-56002D01*
X157959Y-56179D01*
X158258Y-56229D01*
X158968Y-56182D01*
X159323Y-56101D01*
X159577Y-56006D01*
X159730Y-55900D01*
X159781Y-55781D01*
Y-56388D01*
X160550Y-56408D01*
Y-61488D01*
X159781Y-61523D01*
Y-63720D01*
X159730Y-63295D01*
X159577Y-62916D01*
X159323Y-62581D01*
X158968Y-62291D01*
X158511Y-62046D01*
X157952Y-61845D01*
X157291Y-61689D01*
X157019Y-61649D01*
X155470Y-61719D01*
Y-61506D01*
X154700Y-61488D01*
Y-56408D01*
X155470Y-56403D01*
Y-53868D01*
X155520Y-54351D01*
D02*
G37*
G36*
X159781Y-72000D02*
X160550Y-72012D01*
Y-77092D01*
X159781Y-77112D01*
Y-77719D01*
X159730Y-77600D01*
X159577Y-77494D01*
X159323Y-77400D01*
X158968Y-77318D01*
X158511Y-77249D01*
X158423Y-77242D01*
X157947Y-77321D01*
X157283Y-77498D01*
X156721Y-77727D01*
X156261Y-78007D01*
X155903Y-78337D01*
X155646Y-78718D01*
X155492Y-79149D01*
X155439Y-79632D01*
X155448Y-77108D01*
X154700Y-77092D01*
Y-72012D01*
X155467Y-71994D01*
X155470Y-71280D01*
X155520Y-71420D01*
X155673Y-71544D01*
X155927Y-71654D01*
X156282Y-71749D01*
X156740Y-71829D01*
X156977Y-71857D01*
X157291Y-71811D01*
X157952Y-71655D01*
X158511Y-71454D01*
X158968Y-71209D01*
X159323Y-70919D01*
X159577Y-70584D01*
X159730Y-70205D01*
X159781Y-69781D01*
Y-72000D01*
D02*
G37*
G36*
X155470Y-81220D02*
X155032Y-81270D01*
X154640Y-81423D01*
X154294Y-81677D01*
X153995Y-82032D01*
X153741Y-82490D01*
X153534Y-83048D01*
X153372Y-83709D01*
X153257Y-84471D01*
X153188Y-85334D01*
X153165Y-86299D01*
X148085D01*
X148060Y-85330D01*
X147983Y-84462D01*
X147856Y-83696D01*
X147679Y-83033D01*
X147450Y-82471D01*
X147171Y-82010D01*
X146840Y-81652D01*
X146459Y-81396D01*
X146028Y-81242D01*
X145545Y-81189D01*
X155470Y-81220D01*
D02*
G37*
D10*
X164250Y-59750D02*
D03*
Y-73750D02*
D03*
D11*
X100500Y-56750D02*
D03*
X150500Y-76250D02*
D03*
X22450Y-95750D02*
D03*
D12*
X100500Y-76750D02*
D03*
X150500Y-56750D02*
D03*
D13*
X71498Y-44500D02*
X83748Y-56750D01*
X4920Y-44500D02*
X71498D01*
X0Y-49420D02*
X4920Y-44500D01*
X83748Y-56750D02*
X100500D01*
X150500D01*
X150625Y-89125D02*
X150750Y-89250D01*
X150625Y-89125D02*
Y-76375D01*
X150500Y-76250D02*
X150625Y-76375D01*
X150500Y-76250D02*
X152198Y-74552D01*
X163448D01*
X164250Y-73750D01*
X150500Y-56750D02*
X152698Y-58948D01*
X163448D01*
X164250Y-59750D01*
D14*
X136750Y-95750D02*
D03*
X124050D02*
D03*
X111350D02*
D03*
X98650D02*
D03*
X85950D02*
D03*
X73250D02*
D03*
X60550D02*
D03*
X47850D02*
D03*
X35150D02*
D03*
X133350Y0D02*
D03*
X158750D02*
D03*
X88900D02*
D03*
X114300D02*
D03*
X44450D02*
D03*
X69850D02*
D03*
X0D02*
D03*
X25400D02*
D03*
D15*
X52250Y-67500D02*
D03*
X45750Y-57500D02*
D03*
X39250Y-67500D02*
D03*
X32750Y-57500D02*
D03*
X26250Y-67500D02*
D03*
X0Y-49420D02*
D03*
X150750Y-89250D02*
D03*
D16*
X3500Y-68500D02*
D03*
X75000D02*
D03*
M02*
