G04*
G04 #@! TF.GenerationSoftware,Altium Limited,Altium Designer,19.0.10 (269)*
G04*
G04 Layer_Physical_Order=2*
G04 Layer_Color=16711680*
%FSLAX44Y44*%
%MOMM*%
G71*
G01*
G75*
%ADD11R,1.0000X1.0000*%
%ADD13C,0.5080*%
%ADD14C,1.0000*%
%ADD15C,0.7000*%
%ADD16O,1.6000X2.0000*%
%ADD17R,0.7000X0.9000*%
%ADD18C,0.3810*%
%ADD19C,0.1778*%
%ADD20C,0.6350*%
%ADD21C,1.0160*%
G36*
X47620Y-59881D02*
X47414Y-60123D01*
X47232Y-60368D01*
X47075Y-60616D01*
X46942Y-60867D01*
X46833Y-61120D01*
X46748Y-61377D01*
X46687Y-61637D01*
X46651Y-61899D01*
X46639Y-62165D01*
X44861D01*
X44849Y-61899D01*
X44813Y-61637D01*
X44752Y-61377D01*
X44667Y-61120D01*
X44558Y-60867D01*
X44425Y-60616D01*
X44268Y-60368D01*
X44086Y-60123D01*
X43880Y-59881D01*
X43650Y-59642D01*
X47850D01*
X47620Y-59881D01*
D02*
G37*
G36*
X39220Y-70500D02*
X38888Y-70506D01*
X38572Y-70532D01*
X38270Y-70576D01*
X37984Y-70640D01*
X37712Y-70723D01*
X37456Y-70826D01*
X37214Y-70947D01*
X36988Y-71088D01*
X36776Y-71248D01*
X36580Y-71427D01*
X35323Y-70170D01*
X35502Y-69974D01*
X35662Y-69762D01*
X35803Y-69536D01*
X35924Y-69294D01*
X36027Y-69038D01*
X36110Y-68766D01*
X36174Y-68480D01*
X36219Y-68178D01*
X36244Y-67862D01*
X36250Y-67530D01*
X39220Y-70500D01*
D02*
G37*
G36*
X25014Y-86666D02*
X25087Y-87529D01*
X25209Y-88291D01*
X25379Y-88952D01*
X25597Y-89510D01*
X25865Y-89968D01*
X26180Y-90323D01*
X26545Y-90577D01*
X26958Y-90730D01*
X27420Y-90780D01*
X17480D01*
X17942Y-90730D01*
X18355Y-90577D01*
X18720Y-90323D01*
X19035Y-89968D01*
X19303Y-89510D01*
X19521Y-88952D01*
X19691Y-88291D01*
X19813Y-87529D01*
X19886Y-86666D01*
X19910Y-85701D01*
X24990D01*
X25014Y-86666D01*
D02*
G37*
G36*
X36065Y-88195D02*
X36143Y-88577D01*
X36274Y-88973D01*
X36457Y-89385D01*
X36692Y-89812D01*
X36979Y-90255D01*
X37318Y-90713D01*
X37710Y-91186D01*
X38650Y-92179D01*
X31650D01*
X32146Y-91675D01*
X32982Y-90713D01*
X33321Y-90255D01*
X33608Y-89812D01*
X33843Y-89385D01*
X34026Y-88973D01*
X34156Y-88577D01*
X34235Y-88195D01*
X34261Y-87830D01*
X36039D01*
X36065Y-88195D01*
D02*
G37*
G36*
X46668Y-88311D02*
X46754Y-88701D01*
X46899Y-89069D01*
X47101Y-89416D01*
X47361Y-89740D01*
X47679Y-90044D01*
X48054Y-90325D01*
X48487Y-90585D01*
X48978Y-90823D01*
X49527Y-91039D01*
X43194Y-93927D01*
X43511Y-93104D01*
X44711Y-89339D01*
X44794Y-88908D01*
X44844Y-88532D01*
X44861Y-88212D01*
X46639Y-87899D01*
X46668Y-88311D01*
D02*
G37*
G36*
X3483Y-3590D02*
X3594D01*
X3394Y-3890D01*
X3215Y-4367D01*
X3057Y-5020D01*
X2920Y-5852D01*
X2709Y-8046D01*
X2551Y-12665D01*
X2540Y-14559D01*
X-2540D01*
X-2551Y-12665D01*
X-3057Y-5020D01*
X-3215Y-4367D01*
X-3394Y-3890D01*
X-3594Y-3590D01*
X-3483D01*
X-3500Y-3571D01*
X3500D01*
X3483Y-3590D01*
D02*
G37*
G36*
X13793Y-16770D02*
X13635Y-16923D01*
X13496Y-17177D01*
X13375Y-17532D01*
X13272Y-17989D01*
X13189Y-18548D01*
X13077Y-19971D01*
X13040Y-21799D01*
X7960D01*
X7951Y-20834D01*
X7728Y-17989D01*
X7625Y-17532D01*
X7505Y-17177D01*
X7365Y-16923D01*
X7207Y-16770D01*
X7031Y-16719D01*
X13970D01*
X13793Y-16770D01*
D02*
G37*
G36*
X28579Y-2637D02*
X28637Y-3571D01*
X28900D01*
X28838Y-3661D01*
X28783Y-3804D01*
X28734Y-4001D01*
X28692Y-4250D01*
X28684Y-4330D01*
X28895Y-7717D01*
X28970Y-7781D01*
X22030D01*
X22067Y-7717D01*
X22101Y-7527D01*
X22130Y-7209D01*
X22185Y-5746D01*
X22066Y-4001D01*
X22017Y-3804D01*
X21962Y-3661D01*
X21900Y-3571D01*
X22209D01*
X22225Y-1431D01*
X28575D01*
X28579Y-2637D01*
D02*
G37*
G36*
X52127Y-21799D02*
X52117Y-20834D01*
X51894Y-17989D01*
X51792Y-17532D01*
X51671Y-17177D01*
X51532Y-16923D01*
X51374Y-16770D01*
X51197Y-16719D01*
X58136D01*
X57960Y-16770D01*
X57802Y-16923D01*
X57662Y-17177D01*
X57541Y-17532D01*
X57439Y-17989D01*
X57355Y-18548D01*
X57244Y-19971D01*
X57207Y-21799D01*
X52127D01*
D02*
G37*
G36*
X145715Y-16719D02*
X145365Y-16387D01*
X144933Y-16208D01*
X144419Y-16184D01*
X143823Y-16312D01*
X143146Y-16595D01*
X142386Y-17031D01*
X141545Y-17620D01*
X140622Y-18364D01*
X138531Y-20312D01*
X134142Y-17516D01*
X135444Y-16178D01*
X138333Y-12750D01*
X138956Y-11803D01*
X139410Y-10954D01*
X139695Y-10203D01*
X139810Y-9549D01*
X139755Y-8993D01*
X139530Y-8535D01*
X145715Y-16719D01*
D02*
G37*
G36*
X102126Y-16770D02*
X101968Y-16923D01*
X101829Y-17177D01*
X101708Y-17532D01*
X101606Y-17989D01*
X101522Y-18548D01*
X101411Y-19971D01*
X101373Y-21799D01*
X96293D01*
X96284Y-20834D01*
X96061Y-17989D01*
X95959Y-17532D01*
X95838Y-17177D01*
X95698Y-16923D01*
X95540Y-16770D01*
X95364Y-16719D01*
X102303D01*
X102126Y-16770D01*
D02*
G37*
G36*
X101360Y-88548D02*
X101364Y-89116D01*
X101492Y-91150D01*
X101539Y-91395D01*
X101594Y-91586D01*
X101657Y-91724D01*
X101726Y-91808D01*
X95849Y-91608D01*
X95931Y-91523D01*
X96004Y-91385D01*
X96069Y-91192D01*
X96125Y-90947D01*
X96172Y-90647D01*
X96241Y-89888D01*
X96276Y-88914D01*
X96280Y-88347D01*
X101360Y-88548D01*
D02*
G37*
G36*
X126600Y-88984D02*
X126676Y-89953D01*
X126744Y-90383D01*
X126830Y-90775D01*
X126936Y-91130D01*
X127060Y-91448D01*
X127204Y-91729D01*
X127368Y-91973D01*
X127550Y-92179D01*
X120550D01*
X120732Y-91973D01*
X120896Y-91729D01*
X121040Y-91448D01*
X121164Y-91130D01*
X121270Y-90775D01*
X121356Y-90383D01*
X121424Y-89953D01*
X121472Y-89487D01*
X121510Y-88443D01*
X126590D01*
X126600Y-88984D01*
D02*
G37*
G36*
X113110Y-88605D02*
X113201Y-89564D01*
X113281Y-89984D01*
X113384Y-90364D01*
X113509Y-90705D01*
X113658Y-91006D01*
X113829Y-91267D01*
X114023Y-91488D01*
X114240Y-91670D01*
X107329Y-92779D01*
X107460Y-92573D01*
X107577Y-92330D01*
X107680Y-92049D01*
X107770Y-91730D01*
X107846Y-91373D01*
X107908Y-90978D01*
X107991Y-90076D01*
X108018Y-89022D01*
X113098Y-88066D01*
X113110Y-88605D01*
D02*
G37*
G36*
X143964Y-97817D02*
X141243Y-97944D01*
X140749Y-92749D01*
X143740Y-92737D01*
X143964Y-97817D01*
D02*
G37*
G36*
X161772Y-3571D02*
X162250D01*
X162188Y-3661D01*
X162133Y-3804D01*
X162084Y-4001D01*
X162042Y-4250D01*
X161977Y-4909D01*
X161938Y-5779D01*
X161925Y-6863D01*
X161535D01*
X161469Y-7781D01*
X154530D01*
X154729Y-7717D01*
X154907Y-7527D01*
X155063Y-7209D01*
X155199Y-6765D01*
X155314Y-6193D01*
X155408Y-5494D01*
X155464Y-4704D01*
X155416Y-4001D01*
X155367Y-3804D01*
X155312Y-3661D01*
X155250Y-3571D01*
X155536D01*
X155575Y-1431D01*
X161925D01*
X161772Y-3571D01*
D02*
G37*
G36*
X117417D02*
X117800D01*
X117738Y-3661D01*
X117683Y-3804D01*
X117634Y-4001D01*
X117592Y-4250D01*
X117527Y-4909D01*
X117488Y-5779D01*
X117475Y-6863D01*
X117328D01*
X117303Y-7781D01*
X110364D01*
X110508Y-7717D01*
X110638Y-7527D01*
X110752Y-7209D01*
X110851Y-6765D01*
X110935Y-6193D01*
X111032Y-4975D01*
X110966Y-4001D01*
X110917Y-3804D01*
X110862Y-3661D01*
X110800Y-3571D01*
X111080D01*
X111125Y-1431D01*
X117475D01*
X117417Y-3571D01*
D02*
G37*
G36*
X73063D02*
X73350D01*
X73288Y-3661D01*
X73233Y-3804D01*
X73184Y-4001D01*
X73142Y-4250D01*
X73085Y-4832D01*
X73136Y-7781D01*
X66197D01*
X66288Y-7717D01*
X66369Y-7527D01*
X66441Y-7209D01*
X66503Y-6765D01*
X66599Y-5494D01*
X66603Y-5278D01*
X66516Y-4001D01*
X66467Y-3804D01*
X66412Y-3661D01*
X66350Y-3571D01*
X66635D01*
X66675Y-1431D01*
X73025D01*
X73063Y-3571D01*
D02*
G37*
D11*
X22450Y-95750D02*
D03*
D13*
X0Y-49420D02*
X108Y-49528D01*
X5026D01*
X10868Y-55370D01*
X30371D01*
X32501Y-57500D01*
X32750D01*
X0Y-33726D02*
X14024Y-47750D01*
X0Y-33726D02*
Y0D01*
X33776Y-47750D02*
X74748D01*
X14024D02*
X33776D01*
X124050Y-95750D02*
Y-31200D01*
X141040Y-14210D01*
X142040D01*
X143000Y-13250D01*
Y-12250D01*
X110558Y-94958D02*
X111350Y-95750D01*
X110558Y-94958D02*
Y-87271D01*
X110940Y-86889D01*
Y-51613D01*
X98833Y-39506D02*
X110940Y-51613D01*
X98833Y-39506D02*
Y-12250D01*
X54667Y-26167D02*
X61010Y-32510D01*
X81060D01*
X103320Y-54770D01*
Y-83733D02*
Y-54770D01*
X98820Y-88233D02*
X103320Y-83733D01*
X98820Y-95580D02*
Y-88233D01*
X98650Y-95750D02*
X98820Y-95580D01*
X54667Y-26167D02*
Y-12250D01*
X95700Y-80576D02*
Y-57926D01*
X77904Y-40130D02*
X95700Y-57926D01*
X21630Y-40130D02*
X77904D01*
X86891Y-89385D02*
X95700Y-80576D01*
X86891Y-94809D02*
Y-89385D01*
X85950Y-95750D02*
X86891Y-94809D01*
X10500Y-29000D02*
X21630Y-40130D01*
X10500Y-29000D02*
Y-12250D01*
X75870Y-91799D02*
Y-89630D01*
X73250Y-94419D02*
X75870Y-91799D01*
X73250Y-95750D02*
Y-94419D01*
X75870Y-89630D02*
X88080Y-77420D01*
Y-61082D01*
X74748Y-47750D02*
X88080Y-61082D01*
X149991Y-89250D02*
X150750D01*
X143964Y-95277D02*
X149991Y-89250D01*
X137223Y-95277D02*
X143964D01*
X136750Y-95750D02*
X137223Y-95277D01*
X26250Y-67500D02*
X32574Y-61176D01*
X22450Y-95750D02*
Y-71300D01*
X26250Y-67500D01*
D14*
X136750Y-95750D02*
D03*
X124050D02*
D03*
X111350D02*
D03*
X98650D02*
D03*
X85950D02*
D03*
X73250D02*
D03*
X60550D02*
D03*
X47850D02*
D03*
X35150D02*
D03*
X133350Y0D02*
D03*
X158750D02*
D03*
X88900D02*
D03*
X114300D02*
D03*
X44450D02*
D03*
X69850D02*
D03*
X0D02*
D03*
X25400D02*
D03*
D15*
X52250Y-67500D02*
D03*
X45750Y-57500D02*
D03*
X39250Y-67500D02*
D03*
X32750Y-57500D02*
D03*
X26250Y-67500D02*
D03*
X0Y-49420D02*
D03*
X150750Y-89250D02*
D03*
D16*
X3500Y-68500D02*
D03*
X75000D02*
D03*
D17*
X143000Y-12250D02*
D03*
X158000D02*
D03*
X98833D02*
D03*
X113833D02*
D03*
X10500D02*
D03*
X25500D02*
D03*
X54667D02*
D03*
X69667D02*
D03*
D18*
X60550Y-95750D02*
Y-75800D01*
X52250Y-67500D02*
X60550Y-75800D01*
D19*
X35150Y-95750D02*
Y-71600D01*
X39250Y-67500D01*
X47850Y-95750D02*
Y-93525D01*
X45750Y-91425D02*
X47850Y-93525D01*
X45750Y-91425D02*
Y-57500D01*
D20*
X158000Y-12250D02*
Y-11250D01*
X158750Y-10500D01*
Y0D01*
X113833Y-12250D02*
Y-11250D01*
X114300Y-10783D01*
Y0D01*
X69667Y-12250D02*
X69850Y-12067D01*
Y0D01*
X25400Y-12150D02*
X25500Y-12250D01*
X25400Y-12150D02*
Y0D01*
D21*
X88750Y12750D02*
X127500D01*
X45000D02*
X88750D01*
X88900Y12600D01*
Y0D02*
Y12600D01*
X4750Y12750D02*
X45000D01*
X44450Y12200D02*
X45000Y12750D01*
X44450Y0D02*
Y12200D01*
X0Y8000D02*
X4750Y12750D01*
X0Y0D02*
Y8000D01*
X133350Y0D02*
Y6900D01*
X127500Y12750D02*
X133350Y6900D01*
M02*
