M48
;Layer_Color=9474304
;FILE_FORMAT=4:4
METRIC,LZ
;TYPE=PLATED
T1F00S00C0.5000
T2F00S00C0.6000
T3F00S00C1.1000
%
T01
X0015075Y-0008925
X0015875Y0
X0013335
X001143
X000889
X0006985
X0004445
X000254
X0
Y-0004942
X0003275Y-000575
X0004575
X0005225Y-000675
X0003925
X0002625
T02
X0013675Y-0009575
X0012405
X0011135
X0009865
X0008595
X0007325
X0006055
X0004785
X0003515
X0002245
T03
X000035Y-000685
X00075
M30
