G04*
G04 #@! TF.GenerationSoftware,Altium Limited,Altium Designer,19.0.10 (269)*
G04*
G04 Layer_Physical_Order=1*
G04 Layer_Color=255*
%FSLAX44Y44*%
%MOMM*%
G71*
G01*
G75*
%ADD10R,1.6000X1.8000*%
%ADD11O,0.7000X0.2489*%
%ADD12O,0.2489X0.7000*%
%ADD13R,0.8000X0.9000*%
%ADD14R,0.9000X0.8000*%
%ADD15R,0.6000X0.7000*%
%ADD16R,1.0000X1.8000*%
%ADD17R,0.9000X0.8000*%
%ADD18R,0.7000X0.9000*%
%ADD19R,0.9000X0.7000*%
%ADD20O,0.9500X0.3800*%
%ADD21R,0.9500X0.3800*%
%ADD22R,1.0000X0.8000*%
%ADD23R,0.7000X1.5000*%
G04:AMPARAMS|DCode=24|XSize=0.9mm|YSize=0.8mm|CornerRadius=0mm|HoleSize=0mm|Usage=FLASHONLY|Rotation=135.000|XOffset=0mm|YOffset=0mm|HoleType=Round|Shape=Rectangle|*
%AMROTATEDRECTD24*
4,1,4,0.6010,-0.0354,0.0354,-0.6010,-0.6010,0.0354,-0.0354,0.6010,0.6010,-0.0354,0.0*
%
%ADD24ROTATEDRECTD24*%

%ADD25R,3.0000X2.1000*%
%ADD26R,1.6000X0.8000*%
G04:AMPARAMS|DCode=27|XSize=0.25mm|YSize=1.4mm|CornerRadius=0mm|HoleSize=0mm|Usage=FLASHONLY|Rotation=135.000|XOffset=0mm|YOffset=0mm|HoleType=Round|Shape=Round|*
%AMOVALD27*
21,1,1.1500,0.2500,0.0000,0.0000,225.0*
1,1,0.2500,0.4066,0.4066*
1,1,0.2500,-0.4066,-0.4066*
%
%ADD27OVALD27*%

G04:AMPARAMS|DCode=28|XSize=0.25mm|YSize=1.4mm|CornerRadius=0mm|HoleSize=0mm|Usage=FLASHONLY|Rotation=45.000|XOffset=0mm|YOffset=0mm|HoleType=Round|Shape=Round|*
%AMOVALD28*
21,1,1.1500,0.2500,0.0000,0.0000,135.0*
1,1,0.2500,0.4066,-0.4066*
1,1,0.2500,-0.4066,0.4066*
%
%ADD28OVALD28*%

G04:AMPARAMS|DCode=29|XSize=0.9mm|YSize=0.8mm|CornerRadius=0mm|HoleSize=0mm|Usage=FLASHONLY|Rotation=225.000|XOffset=0mm|YOffset=0mm|HoleType=Round|Shape=Rectangle|*
%AMROTATEDRECTD29*
4,1,4,0.0354,0.6010,0.6010,0.0354,-0.0354,-0.6010,-0.6010,-0.0354,0.0354,0.6010,0.0*
%
%ADD29ROTATEDRECTD29*%

%ADD30C,0.2032*%
%ADD31C,0.1778*%
%ADD32C,0.3810*%
%ADD33C,0.5080*%
%ADD34R,1.0000X1.0000*%
%ADD35C,1.0000*%
%ADD36R,1.0000X1.0000*%
%ADD37C,0.7000*%
G36*
X769494Y-8347D02*
X773774Y-7432D01*
X773552Y-7782D01*
X773177Y-8463D01*
X773025Y-8793D01*
X772896Y-9116D01*
X772791Y-9433D01*
X772709Y-9743D01*
X772650Y-10046D01*
X772620Y-10304D01*
X772644Y-11547D01*
X770356D01*
X770397Y-11466D01*
X770434Y-11350D01*
X770466Y-11200D01*
X770494Y-11016D01*
X770531Y-10611D01*
X770508Y-10463D01*
X770428Y-10169D01*
X770317Y-9887D01*
X770174Y-9618D01*
X769999Y-9361D01*
X769793Y-9116D01*
X769555Y-8884D01*
X769312Y-8686D01*
X768410Y-8451D01*
X768090Y-8387D01*
X767167Y-8266D01*
X766871Y-8249D01*
X766582Y-8243D01*
X765329Y-6211D01*
X765659Y-6195D01*
X765964Y-6147D01*
X766243Y-6066D01*
X766496Y-5954D01*
X766723Y-5809D01*
X766925Y-5632D01*
X767100Y-5423D01*
X767250Y-5181D01*
X767374Y-4908D01*
X767473Y-4602D01*
X769494Y-8347D01*
D02*
G37*
G36*
X844950Y-8999D02*
X845701Y-9637D01*
X846032Y-9870D01*
X846334Y-10046D01*
X846607Y-10164D01*
X846850Y-10224D01*
X847064Y-10227D01*
X847249Y-10173D01*
X847404Y-10061D01*
X844561Y-12904D01*
X844673Y-12749D01*
X844727Y-12564D01*
X844724Y-12350D01*
X844664Y-12107D01*
X844546Y-11834D01*
X844370Y-11532D01*
X844137Y-11201D01*
X843847Y-10840D01*
X843094Y-10030D01*
X844530Y-8594D01*
X844950Y-8999D01*
D02*
G37*
G36*
X805277Y-10101D02*
X805067Y-10333D01*
X804883Y-10581D01*
X804725Y-10846D01*
X804592Y-11128D01*
X804486Y-11426D01*
X804405Y-11741D01*
X804350Y-12073D01*
X804322Y-12422D01*
X804319Y-12787D01*
X804342Y-13169D01*
X800604Y-10001D01*
X801004Y-9962D01*
X801384Y-9905D01*
X801744Y-9830D01*
X802085Y-9736D01*
X802406Y-9624D01*
X802708Y-9493D01*
X802989Y-9345D01*
X803251Y-9178D01*
X803494Y-8992D01*
X803717Y-8788D01*
X805277Y-10101D01*
D02*
G37*
G36*
X933535Y-13609D02*
X933502Y-13580D01*
X933440Y-13553D01*
X933350Y-13530D01*
X933231Y-13510D01*
X933084Y-13493D01*
X932471Y-13460D01*
X931920Y-13454D01*
Y-11422D01*
X932089Y-11419D01*
X932374Y-11399D01*
X932489Y-11382D01*
X932587Y-11359D01*
X932666Y-11332D01*
X932727Y-11299D01*
X932770Y-11262D01*
X932796Y-11219D01*
X932803Y-11171D01*
X933535Y-13609D01*
D02*
G37*
G36*
X830561Y-13969D02*
X830615Y-13974D01*
X831002Y-13984D01*
Y-16016D01*
X830615Y-16026D01*
X830561Y-16031D01*
Y-17032D01*
X830540Y-16839D01*
X830479Y-16666D01*
X830375Y-16514D01*
X830231Y-16382D01*
X830045Y-16270D01*
X829818Y-16178D01*
X829759Y-16163D01*
X829701Y-16178D01*
X829477Y-16270D01*
X829295Y-16382D01*
X829152Y-16514D01*
X829051Y-16666D01*
X828990Y-16839D01*
X828969Y-17032D01*
Y-16033D01*
X828890Y-16026D01*
X828499Y-16016D01*
Y-13984D01*
X828890Y-13974D01*
X828969Y-13967D01*
Y-12968D01*
X828990Y-13161D01*
X829051Y-13334D01*
X829152Y-13486D01*
X829295Y-13618D01*
X829477Y-13730D01*
X829701Y-13821D01*
X829759Y-13837D01*
X829818Y-13821D01*
X830045Y-13730D01*
X830231Y-13618D01*
X830375Y-13486D01*
X830479Y-13334D01*
X830540Y-13161D01*
X830561Y-12968D01*
Y-13969D01*
D02*
G37*
G36*
X738039Y-14000D02*
X737646Y-14007D01*
X737272Y-14036D01*
X736917Y-14088D01*
X736579Y-14162D01*
X736260Y-14258D01*
X735959Y-14376D01*
X735676Y-14517D01*
X735412Y-14679D01*
X735166Y-14864D01*
X734939Y-15072D01*
X733502Y-13635D01*
X733709Y-13407D01*
X733894Y-13161D01*
X734057Y-12897D01*
X734198Y-12615D01*
X734316Y-12314D01*
X734412Y-11995D01*
X734486Y-11657D01*
X734538Y-11301D01*
X734567Y-10927D01*
X734574Y-10535D01*
X738039Y-14000D01*
D02*
G37*
G36*
X852490Y-12661D02*
X852551Y-12834D01*
X852652Y-12986D01*
X852795Y-13118D01*
X852978Y-13230D01*
X853201Y-13321D01*
X853465Y-13392D01*
X853770Y-13443D01*
X854115Y-13474D01*
X854501Y-13484D01*
Y-15516D01*
X854115Y-15526D01*
X853770Y-15557D01*
X853465Y-15607D01*
X853201Y-15678D01*
X852978Y-15770D01*
X852795Y-15882D01*
X852652Y-16014D01*
X852551Y-16166D01*
X852490Y-16339D01*
X852469Y-16532D01*
Y-12468D01*
X852490Y-12661D01*
D02*
G37*
G36*
X857701Y-13992D02*
X858093Y-14321D01*
X858266Y-14440D01*
X858425Y-14530D01*
X858568Y-14589D01*
X858698Y-14617D01*
X858812Y-14615D01*
X858911Y-14584D01*
X858996Y-14521D01*
X856787Y-16731D01*
X856849Y-16646D01*
X856881Y-16547D01*
X856882Y-16432D01*
X856854Y-16303D01*
X856795Y-16160D01*
X856706Y-16001D01*
X856586Y-15827D01*
X856437Y-15639D01*
X856257Y-15436D01*
X856047Y-15218D01*
X857483Y-13782D01*
X857701Y-13992D01*
D02*
G37*
G36*
X826969Y-16750D02*
X826873Y-16610D01*
X826755Y-16486D01*
X826614Y-16376D01*
X826450Y-16280D01*
X826265Y-16200D01*
X826057Y-16133D01*
X825826Y-16082D01*
X825573Y-16045D01*
X825298Y-16023D01*
X825000Y-16016D01*
Y-13984D01*
X825298Y-13977D01*
X825573Y-13955D01*
X825826Y-13918D01*
X826057Y-13866D01*
X826265Y-13800D01*
X826451Y-13720D01*
X826614Y-13624D01*
X826755Y-13514D01*
X826873Y-13390D01*
X826969Y-13250D01*
X826969Y-16750D01*
D02*
G37*
G36*
X963720Y-15973D02*
X963586Y-15999D01*
X963467Y-16050D01*
X963361Y-16124D01*
X963270Y-16222D01*
X963192Y-16344D01*
X963129Y-16489D01*
X963079Y-16659D01*
X963044Y-16852D01*
X963023Y-17069D01*
X963016Y-17310D01*
X960984D01*
X960978Y-16968D01*
X960934Y-16370D01*
X960894Y-16112D01*
X960844Y-15883D01*
X960782Y-15682D01*
X960709Y-15509D01*
X960625Y-15364D01*
X960529Y-15247D01*
X960423Y-15158D01*
X963720Y-15973D01*
D02*
G37*
G36*
X978618Y-15197D02*
X978081Y-15551D01*
X975659Y-17349D01*
X975227Y-17714D01*
X974035Y-18818D01*
X972136Y-17844D01*
X972429Y-17514D01*
X972655Y-17178D01*
X972816Y-16835D01*
X972910Y-16484D01*
X972938Y-16126D01*
X972900Y-15762D01*
X972795Y-15390D01*
X972625Y-15011D01*
X972388Y-14625D01*
X972085Y-14232D01*
X978618Y-15197D01*
D02*
G37*
G36*
X814877Y-16276D02*
X814837Y-16481D01*
X814850Y-16709D01*
X814915Y-16960D01*
X815032Y-17236D01*
X815202Y-17535D01*
X815424Y-17858D01*
X815699Y-18205D01*
X816027Y-18575D01*
X816406Y-18970D01*
X815470Y-20906D01*
X815030Y-20482D01*
X814253Y-19819D01*
X813915Y-19582D01*
X813611Y-19407D01*
X813341Y-19295D01*
X813104Y-19245D01*
X812901Y-19257D01*
X812731Y-19332D01*
X812596Y-19469D01*
X814969Y-16096D01*
X814877Y-16276D01*
D02*
G37*
G36*
X836339Y-18960D02*
X836166Y-19022D01*
X836014Y-19125D01*
X835882Y-19269D01*
X835770Y-19455D01*
X835679Y-19682D01*
X835607Y-19950D01*
X835557Y-20259D01*
X835526Y-20610D01*
X835516Y-21002D01*
X833484D01*
X833474Y-20610D01*
X833443Y-20259D01*
X833393Y-19950D01*
X833321Y-19682D01*
X833230Y-19455D01*
X833118Y-19269D01*
X832986Y-19125D01*
X832834Y-19022D01*
X832661Y-18960D01*
X832468Y-18939D01*
X836532D01*
X836339Y-18960D01*
D02*
G37*
G36*
X868441Y-17704D02*
X868448Y-17783D01*
X868488Y-17887D01*
X868561Y-18015D01*
X868667Y-18168D01*
X868806Y-18345D01*
X869181Y-18771D01*
X870381Y-19836D01*
X870440Y-19859D01*
X868815Y-21484D01*
X868792Y-21425D01*
X868741Y-21342D01*
X868662Y-21235D01*
X868421Y-20949D01*
X867935Y-20436D01*
X867703Y-20241D01*
X867449Y-20059D01*
X867209Y-19920D01*
X866984Y-19824D01*
X866774Y-19772D01*
X866578Y-19763D01*
X866397Y-19797D01*
X866230Y-19875D01*
X866078Y-19995D01*
X868467Y-17649D01*
X868441Y-17704D01*
D02*
G37*
G36*
X782010Y-20881D02*
X782104Y-20903D01*
X782234Y-20922D01*
X782605Y-20953D01*
X783789Y-20984D01*
X784177Y-20985D01*
Y-23017D01*
X783789Y-23018D01*
X782010Y-23120D01*
X781954Y-23144D01*
Y-20857D01*
X782010Y-20881D01*
D02*
G37*
G36*
X920326Y-25469D02*
X920052Y-25745D01*
X918865Y-27081D01*
X918842Y-27140D01*
X917217Y-25516D01*
X917276Y-25493D01*
X917359Y-25442D01*
X917466Y-25363D01*
X917753Y-25122D01*
X918613Y-24306D01*
X918889Y-24032D01*
X920326Y-25469D01*
D02*
G37*
G36*
X782010Y-24881D02*
X782104Y-24903D01*
X782234Y-24922D01*
X782605Y-24953D01*
X783789Y-24983D01*
X784177Y-24985D01*
Y-27017D01*
X783789Y-27018D01*
X782010Y-27120D01*
X781954Y-27144D01*
Y-24857D01*
X782010Y-24881D01*
D02*
G37*
G36*
X820178Y-22731D02*
X820276Y-22797D01*
X820387Y-22856D01*
X820511Y-22907D01*
X820648Y-22950D01*
X820798Y-22985D01*
X820962Y-23012D01*
X821138Y-23032D01*
X821531Y-23047D01*
X821561Y-28404D01*
X821545Y-28121D01*
X821500Y-27837D01*
X821425Y-27552D01*
X821322Y-27265D01*
X821190Y-26978D01*
X821029Y-26691D01*
X820839Y-26402D01*
X820619Y-26112D01*
X820371Y-25822D01*
X820094Y-25531D01*
Y-22657D01*
X820178Y-22731D01*
D02*
G37*
G36*
X923154Y-28298D02*
X922880Y-28573D01*
X921694Y-29910D01*
X921671Y-29969D01*
X920046Y-28344D01*
X920105Y-28321D01*
X920188Y-28270D01*
X920295Y-28191D01*
X920581Y-27950D01*
X921442Y-27134D01*
X921717Y-26861D01*
X923154Y-28298D01*
D02*
G37*
G36*
X782009Y-28881D02*
X782097Y-28903D01*
X782218Y-28922D01*
X782561Y-28953D01*
X783324Y-28980D01*
X783999Y-28985D01*
Y-31017D01*
X783645Y-31018D01*
X782009Y-31120D01*
X781954Y-31144D01*
Y-28857D01*
X782009Y-28881D01*
D02*
G37*
G36*
X741046Y-31144D02*
X740990Y-31120D01*
X740896Y-31098D01*
X740766Y-31079D01*
X740395Y-31049D01*
X739211Y-31018D01*
X738823Y-31017D01*
Y-28985D01*
X739211Y-28984D01*
X740990Y-28881D01*
X741046Y-28857D01*
Y-31144D01*
D02*
G37*
G36*
X830490Y-28630D02*
X830551Y-28802D01*
X830652Y-28955D01*
X830795Y-29087D01*
X830977Y-29199D01*
X831201Y-29290D01*
X831465Y-29361D01*
X831770Y-29412D01*
X832115Y-29443D01*
X832502Y-29453D01*
Y-31485D01*
X832115Y-31480D01*
X831201Y-31405D01*
X830977Y-31360D01*
X830795Y-31305D01*
X830652Y-31240D01*
X830551Y-31166D01*
X830490Y-31081D01*
X830470Y-30986D01*
Y-28437D01*
X830490Y-28630D01*
D02*
G37*
G36*
X925982Y-31126D02*
X925709Y-31401D01*
X924522Y-32738D01*
X924499Y-32797D01*
X922874Y-31173D01*
X922933Y-31149D01*
X923016Y-31098D01*
X923123Y-31019D01*
X923409Y-30779D01*
X924270Y-29963D01*
X924546Y-29689D01*
X925982Y-31126D01*
D02*
G37*
G36*
X786591Y-31135D02*
X786837Y-31321D01*
X787101Y-31483D01*
X787384Y-31624D01*
X787684Y-31742D01*
X788004Y-31838D01*
X788341Y-31912D01*
X788697Y-31964D01*
X789071Y-31993D01*
X789463Y-32000D01*
X785999Y-35465D01*
X785992Y-35073D01*
X785962Y-34698D01*
X785911Y-34343D01*
X785837Y-34005D01*
X785741Y-33686D01*
X785622Y-33385D01*
X785482Y-33103D01*
X785319Y-32838D01*
X785134Y-32593D01*
X784927Y-32365D01*
X786364Y-30928D01*
X786591Y-31135D01*
D02*
G37*
G36*
X910037Y-35945D02*
X909978Y-35968D01*
X909896Y-36019D01*
X909789Y-36098D01*
X909502Y-36339D01*
X908642Y-37155D01*
X908366Y-37429D01*
X906929Y-35992D01*
X907203Y-35716D01*
X908390Y-34379D01*
X908413Y-34320D01*
X910037Y-35945D01*
D02*
G37*
G36*
X953175Y-37544D02*
X951738Y-36107D01*
X951845Y-35986D01*
X951922Y-35867D01*
X951971Y-35749D01*
X951990Y-35632D01*
X951979Y-35517D01*
X951940Y-35403D01*
X951871Y-35291D01*
X951773Y-35180D01*
X951646Y-35070D01*
X951489Y-34961D01*
X955694Y-34604D01*
X953175Y-37544D01*
D02*
G37*
G36*
X852073Y-35619D02*
X853410Y-36806D01*
X853469Y-36830D01*
X851844Y-38454D01*
X851821Y-38395D01*
X851770Y-38312D01*
X851691Y-38205D01*
X851450Y-37919D01*
X850634Y-37058D01*
X850361Y-36783D01*
X851798Y-35346D01*
X852073Y-35619D01*
D02*
G37*
G36*
X776496Y-39144D02*
X776439Y-39120D01*
X776346Y-39098D01*
X776215Y-39079D01*
X775844Y-39049D01*
X774660Y-39018D01*
X774272Y-39017D01*
Y-36985D01*
X774660Y-36983D01*
X776439Y-36881D01*
X776496Y-36857D01*
Y-39144D01*
D02*
G37*
G36*
X746561Y-36881D02*
X746655Y-36903D01*
X746785Y-36922D01*
X747156Y-36953D01*
X748340Y-36983D01*
X748728Y-36985D01*
Y-39017D01*
X748340Y-39018D01*
X746561Y-39120D01*
X746505Y-39144D01*
Y-36857D01*
X746561Y-36881D01*
D02*
G37*
G36*
X939177Y-38002D02*
X938933Y-38287D01*
X938718Y-38576D01*
X938532Y-38867D01*
X938374Y-39160D01*
X938245Y-39457D01*
X938145Y-39756D01*
X938073Y-40058D01*
X938030Y-40362D01*
X938016Y-40670D01*
X935984Y-40671D01*
X935970Y-40363D01*
X935927Y-40059D01*
X935855Y-39757D01*
X935754Y-39458D01*
X935625Y-39162D01*
X935468Y-38868D01*
X935281Y-38577D01*
X935066Y-38289D01*
X934822Y-38004D01*
X934549Y-37722D01*
X939449Y-37719D01*
X939177Y-38002D01*
D02*
G37*
G36*
X849245Y-38448D02*
X850582Y-39635D01*
X850640Y-39658D01*
X849016Y-41283D01*
X848993Y-41224D01*
X848942Y-41141D01*
X848863Y-41034D01*
X848622Y-40747D01*
X847806Y-39887D01*
X847532Y-39611D01*
X848969Y-38175D01*
X849245Y-38448D01*
D02*
G37*
G36*
X843084Y-37820D02*
X843428Y-38264D01*
X843905Y-38816D01*
X845679Y-40667D01*
X844638Y-42501D01*
X844389Y-42274D01*
X844142Y-42091D01*
X843896Y-41952D01*
X843650Y-41858D01*
X843406Y-41808D01*
X843163Y-41802D01*
X842921Y-41840D01*
X842680Y-41922D01*
X842440Y-42049D01*
X842201Y-42220D01*
X842962Y-37638D01*
X843084Y-37820D01*
D02*
G37*
G36*
X937296Y-42440D02*
X937023Y-42715D01*
X935836Y-44052D01*
X935813Y-44111D01*
X934188Y-42486D01*
X934247Y-42463D01*
X934330Y-42412D01*
X934437Y-42333D01*
X934723Y-42092D01*
X935584Y-41276D01*
X935859Y-41003D01*
X937296Y-42440D01*
D02*
G37*
G36*
X846260Y-41245D02*
X847483Y-42317D01*
X847613Y-42401D01*
X847723Y-42457D01*
X847812Y-42486D01*
X846187Y-44111D01*
X846170Y-44082D01*
X846124Y-44026D01*
X845948Y-43832D01*
X844735Y-42598D01*
X845983Y-40971D01*
X846260Y-41245D01*
D02*
G37*
G36*
X813969Y-43486D02*
X813999Y-44842D01*
X811967D01*
X811964Y-44580D01*
X811913Y-43957D01*
X811882Y-43805D01*
X811845Y-43680D01*
X811801Y-43582D01*
X811749Y-43513D01*
X811692Y-43470D01*
X811627Y-43456D01*
X813969Y-43486D01*
D02*
G37*
G36*
X865125Y-42865D02*
X865176Y-42948D01*
X865255Y-43055D01*
X865496Y-43341D01*
X866312Y-44202D01*
X866585Y-44477D01*
X865149Y-45914D01*
X864873Y-45640D01*
X863536Y-44454D01*
X863477Y-44430D01*
X865102Y-42806D01*
X865125Y-42865D01*
D02*
G37*
G36*
X961050Y-42942D02*
X960647Y-43593D01*
X960484Y-43912D01*
X960345Y-44228D01*
X960232Y-44539D01*
X960144Y-44847D01*
X960080Y-45151D01*
X960043Y-45451D01*
X960030Y-45747D01*
X957998Y-46064D01*
X957983Y-45748D01*
X957936Y-45442D01*
X957858Y-45145D01*
X957749Y-44858D01*
X957609Y-44580D01*
X957438Y-44311D01*
X957236Y-44053D01*
X957003Y-43803D01*
X956739Y-43564D01*
X956443Y-43333D01*
X961290Y-42611D01*
X961050Y-42942D01*
D02*
G37*
G36*
X744802Y-43208D02*
X745807D01*
X745614Y-43229D01*
X745442Y-43291D01*
X745289Y-43394D01*
X745157Y-43538D01*
X745045Y-43724D01*
X744954Y-43951D01*
X744948Y-43972D01*
X745030Y-44202D01*
X745165Y-44491D01*
X745329Y-44774D01*
X745523Y-45051D01*
X745747Y-45323D01*
X746001Y-45589D01*
X746284Y-45849D01*
X741394Y-46162D01*
X741654Y-45858D01*
X741886Y-45554D01*
X742090Y-45250D01*
X742268Y-44946D01*
X742418Y-44643D01*
X742541Y-44339D01*
X742627Y-44065D01*
X742597Y-43951D01*
X742505Y-43724D01*
X742394Y-43538D01*
X742262Y-43394D01*
X742109Y-43291D01*
X741936Y-43229D01*
X741743Y-43208D01*
X742756D01*
X742759Y-43127D01*
X744791Y-42991D01*
X744802Y-43208D01*
D02*
G37*
G36*
X940125Y-45268D02*
X939851Y-45543D01*
X938664Y-46880D01*
X938641Y-46939D01*
X937017Y-45315D01*
X937075Y-45292D01*
X937158Y-45241D01*
X937265Y-45162D01*
X937551Y-44921D01*
X938412Y-44105D01*
X938688Y-43831D01*
X940125Y-45268D01*
D02*
G37*
G36*
X814009Y-47122D02*
X814040Y-47472D01*
X814091Y-47782D01*
X814162Y-48050D01*
X814253Y-48277D01*
X814365Y-48462D01*
X814497Y-48607D01*
X814650Y-48710D01*
X814822Y-48772D01*
X815015Y-48792D01*
X810951D01*
X811144Y-48772D01*
X811317Y-48710D01*
X811469Y-48607D01*
X811601Y-48462D01*
X811713Y-48277D01*
X811805Y-48050D01*
X811876Y-47782D01*
X811927Y-47472D01*
X811957Y-47122D01*
X811967Y-46730D01*
X813999D01*
X814009Y-47122D01*
D02*
G37*
G36*
X973678Y-46782D02*
X973434Y-47067D01*
X973219Y-47355D01*
X973032Y-47646D01*
X972875Y-47940D01*
X972745Y-48236D01*
X972645Y-48535D01*
X972573Y-48837D01*
X972530Y-49142D01*
X972516Y-49449D01*
X970484D01*
X970470Y-49142D01*
X970427Y-48837D01*
X970355Y-48535D01*
X970255Y-48236D01*
X970126Y-47940D01*
X969968Y-47646D01*
X969781Y-47355D01*
X969566Y-47067D01*
X969322Y-46782D01*
X969050Y-46500D01*
X973950D01*
X973678Y-46782D01*
D02*
G37*
G36*
X949926Y-49677D02*
X949792Y-49461D01*
X949640Y-49267D01*
X949469Y-49096D01*
X949279Y-48948D01*
X949071Y-48823D01*
X948843Y-48721D01*
X948597Y-48641D01*
X948333Y-48584D01*
X948049Y-48550D01*
X947747Y-48538D01*
Y-46506D01*
X948102Y-46497D01*
X948439Y-46468D01*
X948758Y-46421D01*
X949059Y-46354D01*
X949343Y-46268D01*
X949608Y-46164D01*
X949856Y-46040D01*
X950087Y-45897D01*
X950299Y-45735D01*
X950494Y-45554D01*
X949926Y-49677D01*
D02*
G37*
G36*
X987424Y-48182D02*
X986726Y-48253D01*
X985471Y-48452D01*
X984914Y-48580D01*
X984404Y-48727D01*
X983941Y-48894D01*
X983525Y-49079D01*
X983155Y-49283D01*
X982833Y-49507D01*
X982557Y-49750D01*
X980981Y-48452D01*
X981243Y-48154D01*
X981470Y-47816D01*
X981662Y-47440D01*
X981819Y-47025D01*
X981941Y-46571D01*
X982028Y-46079D01*
X982081Y-45548D01*
X982098Y-44979D01*
X982080Y-44370D01*
X982028Y-43723D01*
X987424Y-48182D01*
D02*
G37*
G36*
X942978Y-47741D02*
X942715Y-48009D01*
X941911Y-48937D01*
X941773Y-49133D01*
X941659Y-49313D01*
X941571Y-49479D01*
X941508Y-49631D01*
X941469Y-49768D01*
X939845Y-48143D01*
X939831Y-48129D01*
X939863Y-48074D01*
X939939Y-47976D01*
X940224Y-47656D01*
X941720Y-46125D01*
X942978Y-47741D01*
D02*
G37*
G36*
X772728Y-47886D02*
X772790Y-48059D01*
X772893Y-48211D01*
X773037Y-48344D01*
X773223Y-48455D01*
X773450Y-48547D01*
X773718Y-48618D01*
X774027Y-48669D01*
X774378Y-48699D01*
X774770Y-48709D01*
Y-50741D01*
X774378Y-50752D01*
X774027Y-50782D01*
X773718Y-50833D01*
X773450Y-50904D01*
X773223Y-50995D01*
X773037Y-51107D01*
X772893Y-51239D01*
X772790Y-51392D01*
X772728Y-51564D01*
X772707Y-51757D01*
Y-47693D01*
X772728Y-47886D01*
D02*
G37*
G36*
X945781Y-50925D02*
X945508Y-51200D01*
X944321Y-52537D01*
X944298Y-52596D01*
X942673Y-50972D01*
X942732Y-50948D01*
X942815Y-50897D01*
X942922Y-50819D01*
X943208Y-50578D01*
X944069Y-49762D01*
X944345Y-49488D01*
X945781Y-50925D01*
D02*
G37*
G36*
X830488Y-49420D02*
X830545Y-49568D01*
X830639Y-49699D01*
X830772Y-49812D01*
X830942Y-49908D01*
X831149Y-49987D01*
X831395Y-50048D01*
X831678Y-50091D01*
X831999Y-50118D01*
X832358Y-50126D01*
Y-52158D01*
X831999Y-52167D01*
X831678Y-52193D01*
X831395Y-52237D01*
X831149Y-52298D01*
X830942Y-52376D01*
X830772Y-52472D01*
X830639Y-52586D01*
X830545Y-52716D01*
X830488Y-52865D01*
X830470Y-53031D01*
Y-49254D01*
X830488Y-49420D01*
D02*
G37*
G36*
X772619Y-52511D02*
X772598Y-52604D01*
X772579Y-52735D01*
X772548Y-53106D01*
X772517Y-54290D01*
X772516Y-54678D01*
X772483D01*
X772469Y-55256D01*
X769468Y-55286D01*
X769661Y-55264D01*
X769834Y-55201D01*
X769986Y-55096D01*
X770118Y-54951D01*
X770230Y-54766D01*
X770321Y-54539D01*
X770393Y-54271D01*
X770443Y-53963D01*
X770456Y-53821D01*
X770381Y-52511D01*
X770356Y-52455D01*
X772644D01*
X772619Y-52511D01*
D02*
G37*
G36*
X752619D02*
X752598Y-52604D01*
X752579Y-52735D01*
X752548Y-53106D01*
X752533Y-53690D01*
X752557Y-53963D01*
X752607Y-54271D01*
X752679Y-54539D01*
X752770Y-54766D01*
X752882Y-54951D01*
X753014Y-55096D01*
X753166Y-55201D01*
X753339Y-55264D01*
X753532Y-55286D01*
X750530Y-55256D01*
X750517Y-54678D01*
X750484D01*
X750483Y-54290D01*
X750381Y-52511D01*
X750356Y-52455D01*
X752644D01*
X752619Y-52511D01*
D02*
G37*
G36*
X946512Y-53825D02*
X946606Y-53848D01*
X946738Y-53868D01*
X947111Y-53900D01*
X948296Y-53931D01*
X948684Y-53933D01*
X948752Y-55965D01*
X948213Y-55975D01*
X947289Y-56054D01*
X946904Y-56124D01*
X946571Y-56213D01*
X946290Y-56323D01*
X946061Y-56452D01*
X945883Y-56601D01*
X945757Y-56770D01*
X945683Y-56959D01*
X946453Y-53800D01*
X946512Y-53825D01*
D02*
G37*
G36*
X853806Y-54148D02*
X853851Y-54204D01*
X854028Y-54398D01*
X855240Y-55633D01*
X855044Y-55889D01*
X855297Y-56147D01*
X854039Y-57762D01*
X852164Y-55744D01*
X853788Y-54120D01*
X853806Y-54148D01*
D02*
G37*
G36*
X775031Y-61469D02*
X775010Y-61331D01*
X774949Y-61207D01*
X774848Y-61098D01*
X774705Y-61003D01*
X774522Y-60923D01*
X774299Y-60858D01*
X774035Y-60807D01*
X773798Y-60779D01*
X773759Y-60782D01*
X773450Y-60833D01*
X773182Y-60904D01*
X772955Y-60995D01*
X772769Y-61107D01*
X772625Y-61239D01*
X772522Y-61392D01*
X772460Y-61564D01*
X772439Y-61757D01*
Y-57693D01*
X772460Y-57886D01*
X772522Y-58059D01*
X772625Y-58212D01*
X772769Y-58344D01*
X772955Y-58455D01*
X773182Y-58547D01*
X773450Y-58618D01*
X773749Y-58667D01*
X774047Y-58618D01*
X774315Y-58547D01*
X774541Y-58455D01*
X774727Y-58344D01*
X774872Y-58212D01*
X774976Y-58059D01*
X775039Y-57886D01*
X775061Y-57693D01*
X775031Y-61469D01*
D02*
G37*
G36*
X972516Y-56461D02*
X972525Y-56730D01*
X972552Y-57013D01*
X972598Y-57310D01*
X972744Y-57944D01*
X972844Y-58282D01*
X973100Y-58998D01*
X973428Y-59769D01*
X968854Y-58011D01*
X969164Y-57861D01*
X969441Y-57691D01*
X969685Y-57501D01*
X969897Y-57292D01*
X970077Y-57064D01*
X970223Y-56816D01*
X970337Y-56549D01*
X970419Y-56263D01*
X970468Y-55957D01*
X970484Y-55632D01*
X972516Y-56461D01*
D02*
G37*
G36*
X850983Y-57007D02*
X851034Y-57090D01*
X851113Y-57197D01*
X851354Y-57483D01*
X852170Y-58344D01*
X852443Y-58619D01*
X851006Y-60056D01*
X850731Y-59783D01*
X849394Y-58596D01*
X849335Y-58573D01*
X850960Y-56948D01*
X850983Y-57007D01*
D02*
G37*
G36*
X828339Y-57691D02*
X828166Y-57753D01*
X828014Y-57856D01*
X827882Y-58000D01*
X827770Y-58186D01*
X827679Y-58413D01*
X827607Y-58681D01*
X827557Y-58990D01*
X827526Y-59341D01*
X827526Y-59362D01*
X827526Y-59384D01*
X827557Y-59734D01*
X827607Y-60044D01*
X827679Y-60312D01*
X827770Y-60539D01*
X827882Y-60724D01*
X828014Y-60869D01*
X828166Y-60972D01*
X828339Y-61034D01*
X828532Y-61054D01*
X824468D01*
X824661Y-61034D01*
X824834Y-60972D01*
X824986Y-60869D01*
X825118Y-60724D01*
X825230Y-60539D01*
X825322Y-60312D01*
X825393Y-60044D01*
X825443Y-59734D01*
X825474Y-59384D01*
X825474Y-59362D01*
X825474Y-59341D01*
X825443Y-58990D01*
X825393Y-58681D01*
X825322Y-58413D01*
X825230Y-58186D01*
X825118Y-58000D01*
X824986Y-57856D01*
X824834Y-57753D01*
X824661Y-57691D01*
X824468Y-57670D01*
X828532D01*
X828339Y-57691D01*
D02*
G37*
G36*
X748631Y-57899D02*
X748826Y-58174D01*
X749036Y-58417D01*
X749263Y-58627D01*
X749505Y-58805D01*
X749764Y-58951D01*
X749899Y-59006D01*
X750023Y-58955D01*
X750205Y-58844D01*
X750348Y-58712D01*
X750449Y-58559D01*
X750510Y-58386D01*
X750530Y-58193D01*
Y-59177D01*
X750635Y-59193D01*
X750957Y-59209D01*
X750530Y-60566D01*
Y-62257D01*
X750510Y-62064D01*
X750449Y-61892D01*
X750348Y-61739D01*
X750205Y-61607D01*
X750023Y-61495D01*
X749799Y-61404D01*
X749535Y-61333D01*
X749498Y-61327D01*
X749446Y-61336D01*
X749135Y-61409D01*
X748813Y-61503D01*
X748140Y-61754D01*
X747788Y-61911D01*
X747052Y-62287D01*
X748452Y-57592D01*
X748631Y-57899D01*
D02*
G37*
G36*
X988416Y-60695D02*
X987677Y-60921D01*
X985284Y-61799D01*
X984827Y-62013D01*
X984082Y-62434D01*
X983794Y-62641D01*
X983563Y-62845D01*
X981674Y-61860D01*
X981949Y-61546D01*
X982176Y-61203D01*
X982353Y-60831D01*
X982482Y-60430D01*
X982562Y-60000D01*
X982594Y-59540D01*
X982577Y-59052D01*
X982511Y-58534D01*
X982397Y-57988D01*
X982234Y-57412D01*
X988416Y-60695D01*
D02*
G37*
G36*
X770339Y-64185D02*
X770166Y-64247D01*
X770014Y-64350D01*
X769882Y-64494D01*
X769770Y-64680D01*
X769678Y-64907D01*
X769607Y-65175D01*
X769559Y-65472D01*
X769607Y-65768D01*
X769678Y-66036D01*
X769770Y-66263D01*
X769882Y-66449D01*
X770014Y-66593D01*
X770166Y-66696D01*
X770339Y-66758D01*
X770532Y-66779D01*
X766468D01*
X766661Y-66758D01*
X766834Y-66696D01*
X766986Y-66593D01*
X767118Y-66449D01*
X767230Y-66263D01*
X767321Y-66036D01*
X767393Y-65768D01*
X767441Y-65472D01*
X767393Y-65175D01*
X767321Y-64907D01*
X767230Y-64680D01*
X767118Y-64494D01*
X766986Y-64350D01*
X766834Y-64247D01*
X766661Y-64185D01*
X766468Y-64164D01*
X770532D01*
X770339Y-64185D01*
D02*
G37*
G36*
X756339D02*
X756166Y-64247D01*
X756014Y-64350D01*
X755882Y-64494D01*
X755770Y-64680D01*
X755678Y-64907D01*
X755607Y-65175D01*
X755559Y-65472D01*
X755607Y-65768D01*
X755678Y-66036D01*
X755770Y-66263D01*
X755882Y-66449D01*
X756014Y-66593D01*
X756166Y-66696D01*
X756339Y-66758D01*
X756532Y-66779D01*
X752468D01*
X752661Y-66758D01*
X752834Y-66696D01*
X752986Y-66593D01*
X753118Y-66449D01*
X753230Y-66263D01*
X753321Y-66036D01*
X753392Y-65768D01*
X753441Y-65472D01*
X753392Y-65175D01*
X753321Y-64907D01*
X753230Y-64680D01*
X753118Y-64494D01*
X752986Y-64350D01*
X752834Y-64247D01*
X752661Y-64185D01*
X752468Y-64164D01*
X756532D01*
X756339Y-64185D01*
D02*
G37*
G36*
X959501Y-67450D02*
X959218Y-67178D01*
X958933Y-66934D01*
X958645Y-66719D01*
X958354Y-66532D01*
X958060Y-66375D01*
X957764Y-66245D01*
X957465Y-66145D01*
X957163Y-66073D01*
X956858Y-66030D01*
X956551Y-66016D01*
Y-63984D01*
X956858Y-63970D01*
X957163Y-63927D01*
X957465Y-63855D01*
X957764Y-63755D01*
X958060Y-63625D01*
X958354Y-63468D01*
X958645Y-63281D01*
X958933Y-63066D01*
X959218Y-62822D01*
X959501Y-62550D01*
Y-67450D01*
D02*
G37*
G36*
X808531Y-67525D02*
X808510Y-67332D01*
X808449Y-67160D01*
X808348Y-67007D01*
X808205Y-66875D01*
X808023Y-66763D01*
X807799Y-66672D01*
X807535Y-66601D01*
X807230Y-66550D01*
X806885Y-66519D01*
X806498Y-66509D01*
Y-64477D01*
X806885Y-64467D01*
X807230Y-64437D01*
X807535Y-64386D01*
X807799Y-64315D01*
X808023Y-64223D01*
X808205Y-64111D01*
X808348Y-63980D01*
X808449Y-63827D01*
X808510Y-63654D01*
X808531Y-63461D01*
Y-67525D01*
D02*
G37*
G36*
X813730Y-69797D02*
X813748Y-69826D01*
X813755Y-69851D01*
X813751Y-69872D01*
X813736Y-69891D01*
X813711Y-69906D01*
X813676Y-69917D01*
X813630Y-69926D01*
X813573Y-69931D01*
X813537Y-69932D01*
X812266Y-71202D01*
X812029Y-70961D01*
X811419Y-70250D01*
X811352Y-70135D01*
X811318Y-70047D01*
X811318Y-69983D01*
X811352Y-69945D01*
X811420Y-69932D01*
X813505D01*
X813537Y-69932D01*
X813702Y-69766D01*
X813730Y-69797D01*
D02*
G37*
G36*
X986950Y-73600D02*
X986276Y-73607D01*
X985056Y-73702D01*
X984510Y-73791D01*
X984007Y-73908D01*
X983547Y-74052D01*
X983130Y-74223D01*
X982756Y-74422D01*
X982424Y-74648D01*
X982135Y-74901D01*
X980698Y-73465D01*
X980952Y-73176D01*
X981178Y-72844D01*
X981377Y-72470D01*
X981548Y-72053D01*
X981692Y-71593D01*
X981809Y-71090D01*
X981898Y-70544D01*
X981959Y-69956D01*
X982000Y-68650D01*
X986950Y-73600D01*
D02*
G37*
G36*
X944972Y-75255D02*
X944975Y-75652D01*
X945083Y-77254D01*
X945117Y-77392D01*
X945155Y-77492D01*
X945198Y-77556D01*
X942672Y-75030D01*
X942723Y-75078D01*
X942769Y-75115D01*
X942809Y-75141D01*
X942844Y-75156D01*
X942873Y-75159D01*
X942897Y-75151D01*
X942916Y-75132D01*
X942930Y-75102D01*
X942938Y-75061D01*
X942940Y-75009D01*
X944972Y-75255D01*
D02*
G37*
G36*
X838963Y-71698D02*
X838967Y-72063D01*
X838996Y-72412D01*
X839051Y-72744D01*
X839132Y-73060D01*
X839239Y-73358D01*
X839371Y-73640D01*
X839401Y-73689D01*
X839539Y-73769D01*
X839764Y-73865D01*
X839974Y-73917D01*
X840170Y-73926D01*
X840351Y-73891D01*
X840517Y-73813D01*
X840667Y-73691D01*
X837794Y-76564D01*
X837916Y-76413D01*
X837994Y-76248D01*
X838029Y-76067D01*
X838020Y-75871D01*
X837968Y-75661D01*
X837872Y-75436D01*
X837740Y-75209D01*
X837639Y-75144D01*
X837358Y-74996D01*
X837056Y-74866D01*
X836735Y-74754D01*
X836394Y-74661D01*
X836034Y-74586D01*
X835654Y-74529D01*
X835254Y-74491D01*
X838986Y-71315D01*
X838963Y-71698D01*
D02*
G37*
G36*
X815346Y-73895D02*
X816714Y-75052D01*
X817093Y-75304D01*
X817432Y-75489D01*
X817734Y-75608D01*
X817996Y-75659D01*
X818219Y-75643D01*
X818404Y-75561D01*
X815061Y-77904D01*
X815195Y-77771D01*
X815267Y-77604D01*
X815276Y-77402D01*
X815223Y-77166D01*
X815107Y-76896D01*
X814930Y-76592D01*
X814689Y-76253D01*
X814387Y-75880D01*
X813594Y-75030D01*
X814812Y-73375D01*
X815346Y-73895D01*
D02*
G37*
G36*
X852443Y-76381D02*
X852170Y-76656D01*
X850983Y-77993D01*
X850960Y-78052D01*
X849335Y-76427D01*
X849394Y-76404D01*
X849477Y-76353D01*
X849584Y-76274D01*
X849870Y-76033D01*
X850731Y-75217D01*
X851006Y-74944D01*
X852443Y-76381D01*
D02*
G37*
G36*
X959702Y-80176D02*
X959679Y-80145D01*
X959635Y-80118D01*
X959568Y-80094D01*
X959480Y-80073D01*
X959370Y-80056D01*
X959084Y-80030D01*
X958710Y-80017D01*
X958490Y-80016D01*
Y-77984D01*
X958710Y-77982D01*
X959480Y-77926D01*
X959568Y-77906D01*
X959635Y-77881D01*
X959679Y-77854D01*
X959702Y-77824D01*
Y-80176D01*
D02*
G37*
G36*
X830178Y-79782D02*
X829934Y-80067D01*
X829719Y-80355D01*
X829532Y-80646D01*
X829374Y-80940D01*
X829245Y-81236D01*
X829145Y-81535D01*
X829073Y-81837D01*
X829030Y-82142D01*
X829016Y-82449D01*
X826984D01*
X826970Y-82142D01*
X826927Y-81837D01*
X826855Y-81535D01*
X826755Y-81236D01*
X826626Y-80940D01*
X826468Y-80646D01*
X826281Y-80355D01*
X826066Y-80067D01*
X825823Y-79782D01*
X825550Y-79500D01*
X830450D01*
X830178Y-79782D01*
D02*
G37*
G36*
X819839Y-82490D02*
X819666Y-82551D01*
X819514Y-82652D01*
X819382Y-82795D01*
X819270Y-82978D01*
X819178Y-83201D01*
X819107Y-83465D01*
X819057Y-83770D01*
X819026Y-84115D01*
X819016Y-84501D01*
X816984D01*
X816974Y-84115D01*
X816943Y-83770D01*
X816892Y-83465D01*
X816821Y-83201D01*
X816730Y-82978D01*
X816618Y-82795D01*
X816486Y-82652D01*
X816334Y-82551D01*
X816161Y-82490D01*
X815968Y-82470D01*
X820032D01*
X819839Y-82490D01*
D02*
G37*
G36*
X839327Y-84028D02*
X839268Y-84052D01*
X839185Y-84103D01*
X839078Y-84181D01*
X838792Y-84423D01*
X837931Y-85238D01*
X837655Y-85512D01*
X836219Y-84075D01*
X836492Y-83800D01*
X837679Y-82463D01*
X837702Y-82404D01*
X839327Y-84028D01*
D02*
G37*
G36*
X944321Y-82463D02*
X944372Y-82546D01*
X944451Y-82653D01*
X944692Y-82939D01*
X945508Y-83800D01*
X945781Y-84075D01*
X944345Y-85512D01*
X944069Y-85238D01*
X942732Y-84052D01*
X942673Y-84028D01*
X944298Y-82404D01*
X944321Y-82463D01*
D02*
G37*
G36*
X987793Y-86237D02*
X987079Y-86361D01*
X985238Y-86806D01*
X984725Y-86979D01*
X984261Y-87163D01*
X983848Y-87359D01*
X983485Y-87566D01*
X983173Y-87786D01*
X982910Y-88018D01*
X981222Y-86832D01*
X981490Y-86526D01*
X981717Y-86186D01*
X981903Y-85810D01*
X982050Y-85399D01*
X982156Y-84953D01*
X982221Y-84471D01*
X982246Y-83954D01*
X982231Y-83402D01*
X982176Y-82814D01*
X982080Y-82191D01*
X987793Y-86237D01*
D02*
G37*
G36*
X941493Y-85291D02*
X941544Y-85374D01*
X941623Y-85481D01*
X941864Y-85767D01*
X942680Y-86628D01*
X942953Y-86903D01*
X941516Y-88340D01*
X941241Y-88067D01*
X939904Y-86880D01*
X939845Y-86857D01*
X941469Y-85232D01*
X941493Y-85291D01*
D02*
G37*
G36*
X842155Y-86857D02*
X842096Y-86880D01*
X842013Y-86931D01*
X841906Y-87010D01*
X841620Y-87251D01*
X840759Y-88067D01*
X840484Y-88340D01*
X839047Y-86903D01*
X839321Y-86628D01*
X840507Y-85291D01*
X840531Y-85232D01*
X842155Y-86857D01*
D02*
G37*
G36*
X958111Y-90978D02*
X957732Y-90949D01*
X957369Y-90946D01*
X957022Y-90969D01*
X956692Y-91020D01*
X956378Y-91097D01*
X956080Y-91201D01*
X955799Y-91332D01*
X955534Y-91489D01*
X955285Y-91673D01*
X955053Y-91884D01*
X953768Y-90295D01*
X953971Y-90074D01*
X954156Y-89832D01*
X954324Y-89571D01*
X954475Y-89290D01*
X954608Y-88988D01*
X954724Y-88667D01*
X954822Y-88326D01*
X954903Y-87965D01*
X954966Y-87584D01*
X955013Y-87183D01*
X958111Y-90978D01*
D02*
G37*
G36*
X938664Y-88119D02*
X938715Y-88202D01*
X938794Y-88309D01*
X939035Y-88596D01*
X939851Y-89457D01*
X940125Y-89732D01*
X938688Y-91169D01*
X938412Y-90895D01*
X937075Y-89708D01*
X937017Y-89685D01*
X938641Y-88061D01*
X938664Y-88119D01*
D02*
G37*
G36*
X844984Y-89685D02*
X844925Y-89708D01*
X844842Y-89759D01*
X844735Y-89838D01*
X844449Y-90079D01*
X843588Y-90895D01*
X843312Y-91169D01*
X841876Y-89732D01*
X842149Y-89457D01*
X843336Y-88119D01*
X843359Y-88061D01*
X844984Y-89685D01*
D02*
G37*
G36*
X847812Y-92514D02*
X847753Y-92537D01*
X847670Y-92588D01*
X847563Y-92667D01*
X847277Y-92908D01*
X846416Y-93724D01*
X846141Y-93997D01*
X844704Y-92560D01*
X844977Y-92285D01*
X846164Y-90948D01*
X846187Y-90889D01*
X847812Y-92514D01*
D02*
G37*
G36*
X812906Y-94530D02*
X812457Y-94994D01*
X811759Y-95805D01*
X811511Y-96151D01*
X811331Y-96458D01*
X811218Y-96726D01*
X811172Y-96954D01*
X811194Y-97143D01*
X811283Y-97293D01*
X811439Y-97404D01*
X807596Y-95561D01*
X807796Y-95628D01*
X808015Y-95648D01*
X808254Y-95620D01*
X808512Y-95545D01*
X808790Y-95422D01*
X809087Y-95252D01*
X809403Y-95033D01*
X809739Y-94768D01*
X810095Y-94454D01*
X810470Y-94094D01*
X812906Y-94530D01*
D02*
G37*
G36*
X933008Y-93776D02*
X933058Y-93859D01*
X933137Y-93966D01*
X933378Y-94253D01*
X934194Y-95113D01*
X934468Y-95389D01*
X933031Y-96826D01*
X932756Y-96552D01*
X931419Y-95365D01*
X931360Y-95342D01*
X932984Y-93717D01*
X933008Y-93776D01*
D02*
G37*
G36*
X828218Y-98718D02*
X826259Y-100777D01*
X825803Y-97404D01*
X825879Y-97491D01*
X825959Y-97556D01*
X826045Y-97599D01*
X826135Y-97620D01*
X826231Y-97618D01*
X826331Y-97595D01*
X826436Y-97550D01*
X826546Y-97482D01*
X826662Y-97393D01*
X826782Y-97282D01*
X828218Y-98718D01*
D02*
G37*
G36*
X984971Y-98570D02*
X984227Y-98245D01*
X980867Y-97014D01*
X980492Y-96928D01*
X980169Y-96877D01*
X979899Y-96860D01*
X979069Y-94828D01*
X979491Y-94800D01*
X979893Y-94717D01*
X980275Y-94579D01*
X980637Y-94385D01*
X980979Y-94137D01*
X981301Y-93833D01*
X981604Y-93473D01*
X981886Y-93059D01*
X982148Y-92589D01*
X982390Y-92063D01*
X984971Y-98570D01*
D02*
G37*
G36*
X930179Y-96605D02*
X930230Y-96688D01*
X930309Y-96795D01*
X930550Y-97081D01*
X931366Y-97942D01*
X931639Y-98217D01*
X930202Y-99654D01*
X929927Y-99381D01*
X928590Y-98194D01*
X928531Y-98170D01*
X930156Y-96546D01*
X930179Y-96605D01*
D02*
G37*
G36*
X824561Y-101031D02*
X824545Y-100933D01*
X824499Y-100845D01*
X824420Y-100768D01*
X824311Y-100701D01*
X824171Y-100645D01*
X823999Y-100598D01*
X823796Y-100562D01*
X823562Y-100537D01*
X823000Y-100516D01*
Y-98484D01*
X823297Y-98479D01*
X823796Y-98438D01*
X823999Y-98402D01*
X824171Y-98355D01*
X824311Y-98299D01*
X824420Y-98232D01*
X824499Y-98155D01*
X824545Y-98067D01*
X824561Y-97970D01*
Y-101031D01*
D02*
G37*
G36*
X927351Y-99433D02*
X927402Y-99516D01*
X927480Y-99623D01*
X927722Y-99909D01*
X928537Y-100770D01*
X928811Y-101046D01*
X927374Y-102482D01*
X927099Y-102209D01*
X925762Y-101022D01*
X925703Y-100999D01*
X927327Y-99374D01*
X927351Y-99433D01*
D02*
G37*
G36*
X850259Y-99735D02*
X850308Y-100041D01*
X850390Y-100327D01*
X850504Y-100593D01*
X850651Y-100840D01*
X850830Y-101067D01*
X851042Y-101275D01*
X851286Y-101463D01*
X851563Y-101632D01*
X851873Y-101781D01*
X847309Y-103563D01*
X847480Y-103169D01*
X847886Y-102071D01*
X847986Y-101733D01*
X848130Y-101099D01*
X848175Y-100803D01*
X848202Y-100520D01*
X848211Y-100252D01*
X850243Y-99409D01*
X850259Y-99735D01*
D02*
G37*
G36*
X811463Y-98387D02*
X811530Y-98693D01*
X811640Y-99014D01*
X811794Y-99350D01*
X811990Y-99702D01*
X812231Y-100069D01*
X812514Y-100451D01*
X813211Y-101260D01*
X813625Y-101688D01*
X812906Y-103843D01*
X811469Y-102470D01*
X811439Y-98096D01*
X811463Y-98387D01*
D02*
G37*
G36*
X924522Y-102262D02*
X924573Y-102345D01*
X924652Y-102452D01*
X924893Y-102738D01*
X925709Y-103599D01*
X925982Y-103874D01*
X924546Y-105311D01*
X924270Y-105037D01*
X922933Y-103851D01*
X922874Y-103827D01*
X924499Y-102203D01*
X924522Y-102262D01*
D02*
G37*
G36*
X835414Y-104390D02*
X835444Y-104741D01*
X835495Y-105050D01*
X835566Y-105318D01*
X835657Y-105545D01*
X835769Y-105731D01*
X835901Y-105875D01*
X836054Y-105978D01*
X836226Y-106040D01*
X836419Y-106061D01*
X832355D01*
X832548Y-106040D01*
X832721Y-105978D01*
X832874Y-105875D01*
X833006Y-105731D01*
X833117Y-105545D01*
X833209Y-105318D01*
X833280Y-105050D01*
X833331Y-104741D01*
X833361Y-104390D01*
X833371Y-103998D01*
X835403D01*
X835414Y-104390D01*
D02*
G37*
G36*
X861954Y-106656D02*
X861895Y-106679D01*
X861812Y-106730D01*
X861705Y-106809D01*
X861419Y-107050D01*
X860558Y-107866D01*
X860283Y-108139D01*
X858846Y-106702D01*
X859120Y-106427D01*
X860306Y-105090D01*
X860330Y-105031D01*
X861954Y-106656D01*
D02*
G37*
G36*
X921688Y-105060D02*
X921733Y-105116D01*
X921910Y-105310D01*
X923123Y-106544D01*
X921875Y-108171D01*
X921598Y-107897D01*
X920375Y-106825D01*
X920245Y-106741D01*
X920135Y-106685D01*
X920046Y-106656D01*
X921671Y-105031D01*
X921688Y-105060D01*
D02*
G37*
G36*
X816341Y-104390D02*
X817701Y-105539D01*
X818079Y-105790D01*
X818419Y-105976D01*
X818722Y-106096D01*
X818987Y-106150D01*
X819214Y-106138D01*
X819404Y-106061D01*
X815948Y-108292D01*
X816087Y-108163D01*
X816163Y-108000D01*
X816175Y-107801D01*
X816124Y-107567D01*
X816009Y-107297D01*
X815830Y-106992D01*
X815588Y-106652D01*
X815283Y-106276D01*
X814481Y-105418D01*
X815812Y-103875D01*
X816341Y-104390D01*
D02*
G37*
G36*
X975203Y-110251D02*
X975086Y-110223D01*
X974954Y-110226D01*
X974807Y-110259D01*
X974644Y-110322D01*
X974466Y-110416D01*
X974273Y-110541D01*
X974064Y-110696D01*
X973841Y-110882D01*
X973480Y-111221D01*
X973905D01*
X973921Y-111944D01*
X974046Y-113164D01*
X974155Y-113659D01*
X974296Y-114078D01*
X974468Y-114421D01*
X974672Y-114688D01*
X974906Y-114878D01*
X975172Y-114992D01*
X975470Y-115030D01*
X968531D01*
X968828Y-114992D01*
X969094Y-114878D01*
X969328Y-114688D01*
X969532Y-114421D01*
X969704Y-114078D01*
X969845Y-113659D01*
X969954Y-113164D01*
X970032Y-112592D01*
X970079Y-111944D01*
X970095Y-111221D01*
X973287D01*
X971602Y-107702D01*
X973096Y-106179D01*
X975203Y-110251D01*
D02*
G37*
G36*
X918865Y-107919D02*
X918916Y-108001D01*
X918995Y-108108D01*
X919236Y-108395D01*
X920052Y-109256D01*
X920326Y-109531D01*
X918889Y-110968D01*
X918613Y-110694D01*
X917276Y-109507D01*
X917217Y-109484D01*
X918842Y-107860D01*
X918865Y-107919D01*
D02*
G37*
G36*
X864783Y-109484D02*
X864724Y-109507D01*
X864641Y-109558D01*
X864534Y-109637D01*
X864248Y-109878D01*
X863387Y-110694D01*
X863111Y-110968D01*
X861675Y-109531D01*
X861948Y-109256D01*
X863135Y-107919D01*
X863158Y-107860D01*
X864783Y-109484D01*
D02*
G37*
G36*
X886384Y-110322D02*
X886111Y-110597D01*
X884924Y-111934D01*
X884901Y-111993D01*
X883276Y-110369D01*
X883335Y-110345D01*
X883418Y-110294D01*
X883525Y-110216D01*
X883811Y-109974D01*
X884672Y-109159D01*
X884948Y-108885D01*
X886384Y-110322D01*
D02*
G37*
G36*
X916037Y-110747D02*
X916088Y-110830D01*
X916167Y-110937D01*
X916408Y-111223D01*
X917224Y-112084D01*
X917497Y-112359D01*
X916060Y-113796D01*
X915785Y-113523D01*
X914448Y-112336D01*
X914389Y-112313D01*
X916014Y-110688D01*
X916037Y-110747D01*
D02*
G37*
G36*
X889213Y-113150D02*
X888939Y-113426D01*
X887753Y-114763D01*
X887729Y-114822D01*
X886105Y-113197D01*
X886164Y-113174D01*
X886247Y-113123D01*
X886354Y-113044D01*
X886640Y-112803D01*
X887501Y-111987D01*
X887776Y-111714D01*
X889213Y-113150D01*
D02*
G37*
G36*
X813475Y-113985D02*
X813481Y-114032D01*
X813489Y-114221D01*
X813500Y-115542D01*
X811468D01*
X811462Y-115243D01*
X811418Y-114740D01*
X811379Y-114536D01*
X811329Y-114363D01*
X811268Y-114221D01*
X811196Y-114111D01*
X811112Y-114032D01*
X811018Y-113985D01*
X810912Y-113969D01*
X813469D01*
X813475Y-113985D01*
D02*
G37*
G36*
X870440Y-115141D02*
X870340Y-115171D01*
X870224Y-115224D01*
X870092Y-115301D01*
X869945Y-115401D01*
X869602Y-115670D01*
X869195Y-116033D01*
X868724Y-116489D01*
X867466Y-115232D01*
X867706Y-114989D01*
X868555Y-114011D01*
X868655Y-113863D01*
X868732Y-113732D01*
X868785Y-113616D01*
X868815Y-113516D01*
X870440Y-115141D01*
D02*
G37*
G36*
X913214Y-113605D02*
X913271Y-113715D01*
X913354Y-113846D01*
X913465Y-113997D01*
X913768Y-114363D01*
X914426Y-115069D01*
X914700Y-115346D01*
X913074Y-116593D01*
X911561Y-115141D01*
X913185Y-113516D01*
X913214Y-113605D01*
D02*
G37*
G36*
X854971Y-119108D02*
X854767Y-119332D01*
X854581Y-119574D01*
X854415Y-119837D01*
X854267Y-120119D01*
X854138Y-120420D01*
X854027Y-120741D01*
X853936Y-121082D01*
X853863Y-121442D01*
X853809Y-121821D01*
X853774Y-122220D01*
X850571Y-118512D01*
X850955Y-118532D01*
X851321Y-118526D01*
X851671Y-118495D01*
X852003Y-118438D01*
X852319Y-118356D01*
X852618Y-118248D01*
X852900Y-118115D01*
X853165Y-117956D01*
X853413Y-117772D01*
X853644Y-117562D01*
X854971Y-119108D01*
D02*
G37*
G36*
X910379Y-116403D02*
X910426Y-116482D01*
X910499Y-116583D01*
X910721Y-116849D01*
X911243Y-117411D01*
X911718Y-117894D01*
X910282Y-119331D01*
X910029Y-119081D01*
X908790Y-117992D01*
X908732Y-117970D01*
X910357Y-116345D01*
X910379Y-116403D01*
D02*
G37*
G36*
X873268Y-117970D02*
X873209Y-117993D01*
X873126Y-118044D01*
X873019Y-118123D01*
X872733Y-118364D01*
X871872Y-119179D01*
X871597Y-119453D01*
X870160Y-118016D01*
X870433Y-117741D01*
X871620Y-116404D01*
X871643Y-116345D01*
X873268Y-117970D01*
D02*
G37*
G36*
X929119Y-119790D02*
X929060Y-119674D01*
X928977Y-119569D01*
X928873Y-119477D01*
X928746Y-119397D01*
X928597Y-119329D01*
X928426Y-119274D01*
X928232Y-119231D01*
X928016Y-119200D01*
X927778Y-119181D01*
X927517Y-119175D01*
Y-117143D01*
X927818Y-117138D01*
X928347Y-117095D01*
X928575Y-117057D01*
X928779Y-117008D01*
X928958Y-116949D01*
X929113Y-116879D01*
X929243Y-116798D01*
X929349Y-116706D01*
X929431Y-116604D01*
X929119Y-119790D01*
D02*
G37*
G36*
X900315Y-120956D02*
X900233Y-120909D01*
X900124Y-120902D01*
X899988Y-120937D01*
X899824Y-121012D01*
X899633Y-121129D01*
X899414Y-121286D01*
X899168Y-121484D01*
X898594Y-122004D01*
X898266Y-122325D01*
X895572Y-119631D01*
X895893Y-119303D01*
X896611Y-118483D01*
X896768Y-118265D01*
X896885Y-118073D01*
X896960Y-117909D01*
X896995Y-117773D01*
X896988Y-117664D01*
X896941Y-117582D01*
X900315Y-120956D01*
D02*
G37*
G36*
X815379Y-116986D02*
X816187Y-117678D01*
X816532Y-117923D01*
X816839Y-118101D01*
X817107Y-118210D01*
X817336Y-118253D01*
X817527Y-118228D01*
X817678Y-118135D01*
X817792Y-117976D01*
X815918Y-121849D01*
X815988Y-121646D01*
X816010Y-121424D01*
X815985Y-121184D01*
X815913Y-120925D01*
X815793Y-120647D01*
X815625Y-120350D01*
X815411Y-120034D01*
X815148Y-119700D01*
X814838Y-119347D01*
X814481Y-118975D01*
X814918Y-116539D01*
X815379Y-116986D01*
D02*
G37*
G36*
X876096Y-120798D02*
X876037Y-120821D01*
X875955Y-120872D01*
X875847Y-120951D01*
X875561Y-121192D01*
X874700Y-122008D01*
X874425Y-122281D01*
X872988Y-120844D01*
X873262Y-120569D01*
X874448Y-119232D01*
X874472Y-119173D01*
X876096Y-120798D01*
D02*
G37*
G36*
X983500Y-122971D02*
X983172Y-122673D01*
X982826Y-122407D01*
X982462Y-122172D01*
X982080Y-121969D01*
X981681Y-121796D01*
X981264Y-121656D01*
X980830Y-121546D01*
X980377Y-121468D01*
X979907Y-121421D01*
X979420Y-121405D01*
X979337Y-117595D01*
X979826Y-117579D01*
X980296Y-117530D01*
X980747Y-117449D01*
X981178Y-117335D01*
X981590Y-117189D01*
X981983Y-117011D01*
X982356Y-116800D01*
X982710Y-116556D01*
X983045Y-116280D01*
X983360Y-115972D01*
X983500Y-122971D01*
D02*
G37*
G36*
X953561Y-123030D02*
X953535Y-122912D01*
X953458Y-122805D01*
X953331Y-122711D01*
X953151Y-122630D01*
X952921Y-122561D01*
X952639Y-122505D01*
X952306Y-122461D01*
X951487Y-122411D01*
X951000Y-122405D01*
Y-118595D01*
X951487Y-118589D01*
X952639Y-118495D01*
X952921Y-118439D01*
X953151Y-118370D01*
X953331Y-118288D01*
X953458Y-118195D01*
X953535Y-118088D01*
X953561Y-117970D01*
Y-123030D01*
D02*
G37*
G36*
X884336Y-118326D02*
X884167Y-118558D01*
X884018Y-118811D01*
X883889Y-119085D01*
X883779Y-119381D01*
X883690Y-119699D01*
X883620Y-120038D01*
X883570Y-120399D01*
X883541Y-120782D01*
X883531Y-121186D01*
X881499Y-123218D01*
X881488Y-122834D01*
X881457Y-122513D01*
X881405Y-122253D01*
X881333Y-122056D01*
X881239Y-121921D01*
X881125Y-121848D01*
X880990Y-121838D01*
X880835Y-121890D01*
X880658Y-122004D01*
X880461Y-122181D01*
X884525Y-118117D01*
X884336Y-118326D01*
D02*
G37*
G36*
X975508Y-116052D02*
X975622Y-116376D01*
X975812Y-116662D01*
X976079Y-116909D01*
X976422Y-117119D01*
X976841Y-117290D01*
X977336Y-117423D01*
X977908Y-117519D01*
X978556Y-117576D01*
X979279Y-117595D01*
Y-121405D01*
X978556Y-121424D01*
X977908Y-121481D01*
X977336Y-121576D01*
X976841Y-121710D01*
X976422Y-121881D01*
X976079Y-122091D01*
X975812Y-122338D01*
X975622Y-122624D01*
X975508Y-122948D01*
X975470Y-123310D01*
Y-115690D01*
X975508Y-116052D01*
D02*
G37*
G36*
X865894Y-125155D02*
X865624Y-125440D01*
X865398Y-125709D01*
X865215Y-125964D01*
X865076Y-126204D01*
X864980Y-126429D01*
X864928Y-126639D01*
X864919Y-126835D01*
X864954Y-127015D01*
X865032Y-127181D01*
X865154Y-127332D01*
X862281Y-124459D01*
X862432Y-124580D01*
X862597Y-124659D01*
X862778Y-124694D01*
X862974Y-124685D01*
X863184Y-124633D01*
X863409Y-124537D01*
X863649Y-124398D01*
X863904Y-124215D01*
X864173Y-123989D01*
X864457Y-123719D01*
X865894Y-125155D01*
D02*
G37*
G36*
X950960Y-122764D02*
X950780Y-126779D01*
X946416Y-124672D01*
X946555Y-124607D01*
X946680Y-124507D01*
X946790Y-124371D01*
X946886Y-124201D01*
X946966Y-123996D01*
X947032Y-123756D01*
X947084Y-123480D01*
X947121Y-123170D01*
X947143Y-122825D01*
X947150Y-122445D01*
X950960Y-122764D01*
D02*
G37*
G36*
X822903Y-126839D02*
X822950Y-127145D01*
X823029Y-127441D01*
X823139Y-127725D01*
X823281Y-127999D01*
X823454Y-128261D01*
X823659Y-128513D01*
X823895Y-128753D01*
X824162Y-128983D01*
X824461Y-129201D01*
X819641Y-130081D01*
X819872Y-129740D01*
X820260Y-129073D01*
X820418Y-128748D01*
X820552Y-128428D01*
X820661Y-128114D01*
X820742Y-127818D01*
X820693Y-127632D01*
X820601Y-127405D01*
X820490Y-127219D01*
X820358Y-127074D01*
X820205Y-126970D01*
X820032Y-126907D01*
X819839Y-126884D01*
X820935Y-126895D01*
X822887Y-126522D01*
X822903Y-126839D01*
D02*
G37*
G36*
X928948Y-123787D02*
X929198Y-123971D01*
X929462Y-124124D01*
X929741Y-124248D01*
X930035Y-124341D01*
X930343Y-124405D01*
X930666Y-124439D01*
X931004Y-124443D01*
X931356Y-124417D01*
X931722Y-124362D01*
X928922Y-128382D01*
X928845Y-127978D01*
X928651Y-127232D01*
X928533Y-126890D01*
X928403Y-126569D01*
X928258Y-126270D01*
X928100Y-125991D01*
X927928Y-125733D01*
X927743Y-125496D01*
X927545Y-125280D01*
X928712Y-123574D01*
X928948Y-123787D01*
D02*
G37*
G36*
X835738Y-125858D02*
X835781Y-126163D01*
X835853Y-126465D01*
X835953Y-126764D01*
X836005Y-126884D01*
X836739D01*
X836546Y-126905D01*
X836374Y-126967D01*
X836221Y-127070D01*
X836137Y-127162D01*
X836240Y-127354D01*
X836426Y-127645D01*
X836641Y-127933D01*
X836885Y-128218D01*
X837157Y-128500D01*
X835738D01*
X835734Y-128555D01*
X835723Y-128947D01*
X833691D01*
X833681Y-128555D01*
X833677Y-128500D01*
X832257D01*
X832530Y-128218D01*
X832774Y-127933D01*
X832989Y-127645D01*
X833175Y-127354D01*
X833278Y-127162D01*
X833194Y-127070D01*
X833041Y-126967D01*
X832868Y-126905D01*
X832675Y-126884D01*
X833410D01*
X833462Y-126764D01*
X833562Y-126465D01*
X833634Y-126163D01*
X833677Y-125858D01*
X833691Y-125551D01*
X835723D01*
X835738Y-125858D01*
D02*
G37*
G36*
X883541Y-128890D02*
X883571Y-129241D01*
X883622Y-129550D01*
X883693Y-129818D01*
X883785Y-130045D01*
X883896Y-130231D01*
X884029Y-130375D01*
X884181Y-130478D01*
X884354Y-130540D01*
X884547Y-130561D01*
X880483D01*
X880676Y-130540D01*
X880848Y-130478D01*
X881001Y-130375D01*
X881133Y-130231D01*
X881245Y-130045D01*
X881336Y-129818D01*
X881407Y-129550D01*
X881458Y-129241D01*
X881489Y-128890D01*
X881499Y-128498D01*
X883531D01*
X883541Y-128890D01*
D02*
G37*
G36*
X812448Y-129008D02*
X812124Y-129122D01*
X811839Y-129312D01*
X811591Y-129579D01*
X811381Y-129922D01*
X811210Y-130341D01*
X811077Y-130836D01*
X810981Y-131408D01*
X810924Y-132056D01*
X810905Y-132780D01*
X807095D01*
X807076Y-132056D01*
X807019Y-131408D01*
X806924Y-130836D01*
X806790Y-130341D01*
X806619Y-129922D01*
X806409Y-129579D01*
X806162Y-129312D01*
X805876Y-129122D01*
X805552Y-129008D01*
X805190Y-128969D01*
X812810D01*
X812448Y-129008D01*
D02*
G37*
G36*
X901625Y-134312D02*
X901215Y-134736D01*
X900526Y-135541D01*
X900245Y-135921D01*
X900008Y-136288D01*
X899814Y-136640D01*
X899663Y-136977D01*
X899556Y-137301D01*
X899491Y-137610D01*
X899470Y-137904D01*
Y-132157D01*
X899484Y-132415D01*
X899527Y-132617D01*
X899599Y-132760D01*
X899699Y-132846D01*
X899829Y-132875D01*
X899987Y-132846D01*
X900174Y-132760D01*
X900389Y-132617D01*
X900633Y-132415D01*
X900906Y-132157D01*
X901625Y-134312D01*
D02*
G37*
G36*
X975508Y-128652D02*
X975622Y-128976D01*
X975812Y-129262D01*
X976079Y-129509D01*
X976422Y-129719D01*
X976841Y-129890D01*
X977336Y-130023D01*
X977908Y-130119D01*
X978556Y-130176D01*
X979279Y-130195D01*
Y-134005D01*
X978556Y-134021D01*
X977336Y-134146D01*
X976841Y-134255D01*
X976422Y-134396D01*
X976079Y-134568D01*
X975812Y-134772D01*
X975622Y-135006D01*
X975508Y-135272D01*
X975470Y-135569D01*
Y-128290D01*
X975508Y-128652D01*
D02*
G37*
G36*
X983429Y-135600D02*
X983107Y-135297D01*
X982767Y-135026D01*
X982408Y-134787D01*
X982030Y-134579D01*
X981635Y-134404D01*
X981220Y-134260D01*
X980787Y-134149D01*
X980336Y-134069D01*
X979866Y-134021D01*
X979377Y-134005D01*
X979377Y-130195D01*
X979866Y-130179D01*
X980336Y-130131D01*
X980787Y-130051D01*
X981220Y-129940D01*
X981635Y-129796D01*
X982030Y-129621D01*
X982408Y-129413D01*
X982767Y-129174D01*
X983107Y-128903D01*
X983429Y-128600D01*
X983429Y-135600D01*
D02*
G37*
G36*
X960486Y-133083D02*
X960534Y-133185D01*
X960615Y-133275D01*
X960728Y-133352D01*
X960873Y-133418D01*
X961051Y-133472D01*
X961261Y-133514D01*
X961503Y-133544D01*
X961777Y-133562D01*
X962084Y-133568D01*
Y-135600D01*
X960470Y-135569D01*
Y-132970D01*
X960486Y-133083D01*
D02*
G37*
G36*
X799030Y-136358D02*
X799073Y-136663D01*
X799145Y-136965D01*
X799245Y-137264D01*
X799374Y-137560D01*
X799532Y-137854D01*
X799719Y-138145D01*
X799934Y-138433D01*
X800178Y-138718D01*
X800450Y-139001D01*
X795550D01*
X795823Y-138718D01*
X796066Y-138433D01*
X796281Y-138145D01*
X796468Y-137854D01*
X796626Y-137560D01*
X796755Y-137264D01*
X796855Y-136965D01*
X796927Y-136663D01*
X796970Y-136358D01*
X796984Y-136051D01*
X799016D01*
X799030Y-136358D01*
D02*
G37*
G36*
X845291Y-139890D02*
X845322Y-140241D01*
X845372Y-140550D01*
X845443Y-140819D01*
X845535Y-141045D01*
X845647Y-141231D01*
X845779Y-141375D01*
X845931Y-141479D01*
X846104Y-141540D01*
X846297Y-141561D01*
X842233D01*
X842426Y-141540D01*
X842599Y-141479D01*
X842751Y-141375D01*
X842883Y-141231D01*
X842995Y-141045D01*
X843086Y-140819D01*
X843158Y-140550D01*
X843208Y-140241D01*
X843239Y-139890D01*
X843249Y-139499D01*
X845281D01*
X845291Y-139890D01*
D02*
G37*
G36*
X824906Y-142657D02*
X824551Y-143026D01*
X823980Y-143710D01*
X823763Y-144025D01*
X823594Y-144321D01*
X823470Y-144600D01*
X823393Y-144860D01*
X823362Y-145101D01*
X823377Y-145325D01*
X823439Y-145531D01*
X821722Y-141561D01*
X821827Y-141723D01*
X821973Y-141817D01*
X822159Y-141841D01*
X822386Y-141798D01*
X822653Y-141685D01*
X822961Y-141504D01*
X823309Y-141254D01*
X823697Y-140936D01*
X824596Y-140094D01*
X824906Y-142657D01*
D02*
G37*
G36*
X873009Y-135519D02*
X873156Y-135839D01*
X873426Y-136122D01*
X873817Y-136367D01*
X874330Y-136574D01*
X874964Y-136743D01*
X875720Y-136875D01*
X875949Y-136900D01*
X876332Y-136811D01*
X876706Y-136679D01*
X877012Y-136518D01*
X877250Y-136328D01*
X877421Y-136109D01*
X877525Y-135861D01*
X877561Y-135583D01*
X877550Y-137003D01*
X878720Y-137045D01*
X878013Y-140855D01*
X876954Y-140874D01*
X875161Y-141024D01*
X874426Y-141156D01*
X873798Y-141326D01*
X873278Y-141533D01*
X872866Y-141778D01*
X872562Y-142060D01*
X872365Y-142380D01*
X872276Y-142738D01*
X872983Y-135161D01*
X873009Y-135519D01*
D02*
G37*
G36*
X905733Y-145021D02*
X905649Y-144984D01*
X905530Y-144951D01*
X905377Y-144922D01*
X905189Y-144896D01*
X904709Y-144857D01*
X903335Y-144826D01*
X902041Y-141016D01*
X902425Y-141009D01*
X903097Y-140951D01*
X903385Y-140900D01*
X903642Y-140836D01*
X903866Y-140756D01*
X904058Y-140662D01*
X904219Y-140554D01*
X904347Y-140431D01*
X904444Y-140294D01*
X905733Y-145021D01*
D02*
G37*
G36*
X887785Y-142757D02*
X887728Y-142926D01*
X887679Y-143162D01*
X887635Y-143468D01*
X887569Y-144283D01*
X887519Y-146017D01*
X887516Y-146732D01*
X885484D01*
X885481Y-146017D01*
X885272Y-142926D01*
X885215Y-142757D01*
X885152Y-142656D01*
X887848D01*
X887785Y-142757D01*
D02*
G37*
G36*
X857905Y-144307D02*
X857951Y-144600D01*
X858029Y-144895D01*
X858139Y-145191D01*
X858279Y-145489D01*
X858451Y-145788D01*
X858654Y-146089D01*
X858888Y-146391D01*
X859153Y-146695D01*
X859450Y-147001D01*
X854550D01*
X854847Y-146695D01*
X855112Y-146391D01*
X855346Y-146089D01*
X855549Y-145788D01*
X855721Y-145489D01*
X855861Y-145191D01*
X855971Y-144895D01*
X856049Y-144600D01*
X856095Y-144307D01*
X856111Y-144015D01*
X857889D01*
X857905Y-144307D01*
D02*
G37*
G36*
X953531Y-147470D02*
X953510Y-147390D01*
X953449Y-147318D01*
X953348Y-147255D01*
X953205Y-147201D01*
X953023Y-147155D01*
X952799Y-147117D01*
X952535Y-147088D01*
X951885Y-147054D01*
X951498Y-147050D01*
Y-145018D01*
X951889Y-145008D01*
X952238Y-144977D01*
X952547Y-144927D01*
X952814Y-144855D01*
X953041Y-144764D01*
X953227Y-144652D01*
X953372Y-144520D01*
X953476Y-144368D01*
X953539Y-144195D01*
X953561Y-144002D01*
X953531Y-147470D01*
D02*
G37*
G36*
X975508Y-141052D02*
X975622Y-141376D01*
X975812Y-141662D01*
X976079Y-141909D01*
X976422Y-142119D01*
X976841Y-142290D01*
X977336Y-142423D01*
X977908Y-142519D01*
X978556Y-142576D01*
X979279Y-142595D01*
Y-146175D01*
X979512Y-142595D01*
X979999Y-142580D01*
X980469Y-142535D01*
X980923Y-142460D01*
X981360Y-142354D01*
X981782Y-142219D01*
X982187Y-142054D01*
X982576Y-141859D01*
X982949Y-141633D01*
X983305Y-141378D01*
X983646Y-141092D01*
X983226Y-148079D01*
X982924Y-147761D01*
X982602Y-147477D01*
X982258Y-147226D01*
X981894Y-147008D01*
X981508Y-146824D01*
X981101Y-146673D01*
X980674Y-146556D01*
X980225Y-146472D01*
X979755Y-146422D01*
X979269Y-146405D01*
X978556Y-146416D01*
X977336Y-146501D01*
X976841Y-146575D01*
X976422Y-146671D01*
X976079Y-146788D01*
X975812Y-146927D01*
X975622Y-147086D01*
X975508Y-147267D01*
X975470Y-147470D01*
Y-140690D01*
X975508Y-141052D01*
D02*
G37*
G36*
X898111Y-151555D02*
X898650Y-151589D01*
X899036Y-151595D01*
Y-155405D01*
X898650Y-155410D01*
X898111Y-155455D01*
Y-157310D01*
X898073Y-156948D01*
X897957Y-156624D01*
X897765Y-156338D01*
X897496Y-156091D01*
X897151Y-155881D01*
X896803Y-155740D01*
X896772Y-155754D01*
X896621Y-155846D01*
X896499Y-155950D01*
Y-155649D01*
X896229Y-155576D01*
X895653Y-155481D01*
X895000Y-155424D01*
X894270Y-155405D01*
Y-151595D01*
X895000Y-151576D01*
X895653Y-151519D01*
X896229Y-151424D01*
X896499Y-151351D01*
Y-151050D01*
X896621Y-151153D01*
X896772Y-151246D01*
X896803Y-151260D01*
X897151Y-151119D01*
X897496Y-150909D01*
X897765Y-150661D01*
X897957Y-150376D01*
X898073Y-150052D01*
X898111Y-149690D01*
Y-151555D01*
D02*
G37*
G36*
X982061Y-161310D02*
X982023Y-160948D01*
X981907Y-160624D01*
X981715Y-160338D01*
X981447Y-160091D01*
X981101Y-159881D01*
X980678Y-159710D01*
X980179Y-159577D01*
X979603Y-159481D01*
X979000Y-159428D01*
X978397Y-159481D01*
X977821Y-159577D01*
X977322Y-159710D01*
X976899Y-159881D01*
X976553Y-160091D01*
X976285Y-160338D01*
X976093Y-160624D01*
X975977Y-160948D01*
X975939Y-161310D01*
Y-153690D01*
X975977Y-154052D01*
X976093Y-154376D01*
X976285Y-154662D01*
X976553Y-154909D01*
X976899Y-155119D01*
X977322Y-155290D01*
X977821Y-155424D01*
X978397Y-155519D01*
X979000Y-155572D01*
X979603Y-155519D01*
X980179Y-155424D01*
X980678Y-155290D01*
X981101Y-155119D01*
X981447Y-154909D01*
X981715Y-154662D01*
X981907Y-154376D01*
X982023Y-154052D01*
X982061Y-153690D01*
Y-161310D01*
D02*
G37*
G36*
X920007Y-152291D02*
X920061Y-152442D01*
X920152Y-152575D01*
X920278Y-152691D01*
X920441Y-152789D01*
X920640Y-152869D01*
X920875Y-152931D01*
X921146Y-152976D01*
X921454Y-153002D01*
X921797Y-153011D01*
Y-154789D01*
X921454Y-154798D01*
X921146Y-154825D01*
X920875Y-154869D01*
X920640Y-154931D01*
X920441Y-155011D01*
X920278Y-155109D01*
X920152Y-155225D01*
X920061Y-155358D01*
X920007Y-155509D01*
X919989Y-155678D01*
Y-152122D01*
X920007Y-152291D01*
D02*
G37*
G36*
X845339Y-159490D02*
X845166Y-159551D01*
X845014Y-159652D01*
X844882Y-159795D01*
X844770Y-159978D01*
X844678Y-160201D01*
X844607Y-160465D01*
X844557Y-160770D01*
X844526Y-161115D01*
X844516Y-161502D01*
X842484D01*
X842474Y-161115D01*
X842443Y-160770D01*
X842393Y-160465D01*
X842321Y-160201D01*
X842230Y-159978D01*
X842118Y-159795D01*
X841986Y-159652D01*
X841834Y-159551D01*
X841661Y-159490D01*
X841468Y-159469D01*
X845532D01*
X845339Y-159490D01*
D02*
G37*
G36*
X820339D02*
X820166Y-159551D01*
X820014Y-159652D01*
X819882Y-159795D01*
X819770Y-159978D01*
X819678Y-160201D01*
X819607Y-160465D01*
X819557Y-160770D01*
X819526Y-161115D01*
X819516Y-161500D01*
X819526Y-161890D01*
X819557Y-162241D01*
X819607Y-162550D01*
X819678Y-162819D01*
X819770Y-163045D01*
X819882Y-163231D01*
X820014Y-163375D01*
X820166Y-163479D01*
X820339Y-163540D01*
X820532Y-163561D01*
X816468D01*
X816661Y-163540D01*
X816834Y-163479D01*
X816986Y-163375D01*
X817118Y-163231D01*
X817230Y-163045D01*
X817321Y-162819D01*
X817393Y-162550D01*
X817443Y-162241D01*
X817474Y-161890D01*
X817484Y-161500D01*
X817474Y-161115D01*
X817443Y-160770D01*
X817393Y-160465D01*
X817321Y-160201D01*
X817230Y-159978D01*
X817118Y-159795D01*
X816986Y-159652D01*
X816834Y-159551D01*
X816661Y-159490D01*
X816468Y-159469D01*
X820532D01*
X820339Y-159490D01*
D02*
G37*
G36*
X844526Y-162285D02*
X844557Y-162636D01*
X844607Y-162945D01*
X844678Y-163214D01*
X844770Y-163440D01*
X844882Y-163626D01*
X845014Y-163770D01*
X845166Y-163874D01*
X845339Y-163935D01*
X845532Y-163956D01*
X841468D01*
X841661Y-163935D01*
X841834Y-163874D01*
X841986Y-163770D01*
X842118Y-163626D01*
X842230Y-163440D01*
X842321Y-163214D01*
X842393Y-162945D01*
X842443Y-162636D01*
X842474Y-162285D01*
X842484Y-161894D01*
X844516D01*
X844526Y-162285D01*
D02*
G37*
G36*
X960650Y-158627D02*
X960486Y-158915D01*
X960446Y-159275D01*
X960531Y-159707D01*
X960741Y-160210D01*
X961076Y-160784D01*
X961536Y-161430D01*
X962120Y-162148D01*
X963664Y-163798D01*
X959141Y-164664D01*
X958605Y-164152D01*
X957550Y-163290D01*
X957030Y-162939D01*
X956516Y-162643D01*
X956008Y-162401D01*
X955505Y-162212D01*
X955008Y-162077D01*
X954517Y-161996D01*
X954031Y-161970D01*
X960939Y-158410D01*
X960650Y-158627D01*
D02*
G37*
G36*
X796448Y-162507D02*
X796124Y-162622D01*
X795838Y-162812D01*
X795591Y-163079D01*
X795381Y-163422D01*
X795210Y-163841D01*
X795076Y-164336D01*
X794981Y-164908D01*
X794924Y-165555D01*
X794905Y-166279D01*
X791095D01*
X791076Y-165555D01*
X791019Y-164908D01*
X790923Y-164336D01*
X790790Y-163841D01*
X790619Y-163422D01*
X790409Y-163079D01*
X790162Y-162812D01*
X789876Y-162622D01*
X789552Y-162507D01*
X789190Y-162469D01*
X796810D01*
X796448Y-162507D01*
D02*
G37*
G36*
X940363Y-168594D02*
X941552Y-169593D01*
X941882Y-169811D01*
X942180Y-169970D01*
X942446Y-170072D01*
X942678Y-170116D01*
X942878Y-170102D01*
X943045Y-170030D01*
X940031Y-172045D01*
X940154Y-171929D01*
X940221Y-171783D01*
X940234Y-171607D01*
X940191Y-171401D01*
X940093Y-171164D01*
X939940Y-170898D01*
X939731Y-170601D01*
X939467Y-170275D01*
X938773Y-169531D01*
X939902Y-168145D01*
X940363Y-168594D01*
D02*
G37*
G36*
X979473Y-167036D02*
X979532Y-167134D01*
X979619Y-167255D01*
X979875Y-167565D01*
X980466Y-168203D01*
X980997Y-168743D01*
X979308Y-172442D01*
X979031Y-172175D01*
X978515Y-171742D01*
X978276Y-171575D01*
X978050Y-171441D01*
X977836Y-171341D01*
X977634Y-171273D01*
X977445Y-171239D01*
X977269Y-171237D01*
X977105Y-171269D01*
X979441Y-166962D01*
X979473Y-167036D01*
D02*
G37*
G36*
X930001Y-173450D02*
X929879Y-173347D01*
X929728Y-173254D01*
X929548Y-173172D01*
X929338Y-173101D01*
X929099Y-173041D01*
X928831Y-172992D01*
X928533Y-172954D01*
X927850Y-172910D01*
X927464Y-172905D01*
Y-169095D01*
X927850Y-169090D01*
X928831Y-169008D01*
X929099Y-168959D01*
X929338Y-168899D01*
X929548Y-168828D01*
X929728Y-168746D01*
X929879Y-168654D01*
X930001Y-168550D01*
Y-173450D01*
D02*
G37*
G36*
X983257Y-170976D02*
X984554Y-172060D01*
X985148Y-172467D01*
X985705Y-172785D01*
X986225Y-173012D01*
X986709Y-173150D01*
X987157Y-173198D01*
X987568Y-173156D01*
X987942Y-173024D01*
X982689Y-175629D01*
X982674Y-175652D01*
X982612Y-175622D01*
X982502Y-175541D01*
X982343Y-175408D01*
X981230Y-174356D01*
X980385Y-173519D01*
X982554Y-170300D01*
X983257Y-170976D01*
D02*
G37*
G36*
X849406Y-177918D02*
X849001Y-178338D01*
X848362Y-179089D01*
X848129Y-179420D01*
X847953Y-179722D01*
X847835Y-179995D01*
X847775Y-180238D01*
X847772Y-180452D01*
X847827Y-180637D01*
X847939Y-180791D01*
X845088Y-177956D01*
X845244Y-178067D01*
X845429Y-178122D01*
X845643Y-178118D01*
X845886Y-178058D01*
X846159Y-177940D01*
X846461Y-177764D01*
X846792Y-177532D01*
X847153Y-177241D01*
X847962Y-176489D01*
X849406Y-177918D01*
D02*
G37*
G36*
X839061Y-183532D02*
X839040Y-183339D01*
X838979Y-183166D01*
X838875Y-183014D01*
X838731Y-182882D01*
X838545Y-182770D01*
X838318Y-182679D01*
X838050Y-182607D01*
X837741Y-182557D01*
X837390Y-182526D01*
X836999Y-182516D01*
Y-180484D01*
X837390Y-180474D01*
X837741Y-180443D01*
X838050Y-180393D01*
X838318Y-180322D01*
X838545Y-180230D01*
X838731Y-180118D01*
X838875Y-179986D01*
X838979Y-179834D01*
X839040Y-179661D01*
X839061Y-179468D01*
Y-183532D01*
D02*
G37*
G36*
X822960Y-179661D02*
X823021Y-179834D01*
X823125Y-179986D01*
X823269Y-180118D01*
X823455Y-180230D01*
X823681Y-180322D01*
X823950Y-180393D01*
X824259Y-180443D01*
X824610Y-180474D01*
X825002Y-180484D01*
Y-182516D01*
X824610Y-182526D01*
X824259Y-182557D01*
X823950Y-182607D01*
X823681Y-182679D01*
X823455Y-182770D01*
X823269Y-182882D01*
X823125Y-183014D01*
X823021Y-183166D01*
X822960Y-183339D01*
X822939Y-183532D01*
Y-179468D01*
X822960Y-179661D01*
D02*
G37*
G36*
X920905Y-185000D02*
X917095Y-190268D01*
X917057Y-189629D01*
X916943Y-189057D01*
X916752Y-188553D01*
X916485Y-188116D01*
X916143Y-187746D01*
X915723Y-187443D01*
X915228Y-187208D01*
X914657Y-187040D01*
X914009Y-186939D01*
X913285Y-186905D01*
Y-183095D01*
X914009Y-183057D01*
X914657Y-182943D01*
X915228Y-182752D01*
X915723Y-182485D01*
X916143Y-182143D01*
X916485Y-181723D01*
X916752Y-181228D01*
X916943Y-180657D01*
X917057Y-180009D01*
X917095Y-179285D01*
X920905Y-185000D01*
D02*
G37*
G36*
X810347Y-188652D02*
X810338Y-188699D01*
X810410Y-188741D01*
X813188Y-188897D01*
X813909Y-188900D01*
X805500Y-192710D01*
X800901Y-188900D01*
X801652Y-188873D01*
X802380Y-188792D01*
X803086Y-188658D01*
X803770Y-188469D01*
X804432Y-188227D01*
X805071Y-187930D01*
X805688Y-187580D01*
X806283Y-187176D01*
X806855Y-186718D01*
X807405Y-186206D01*
X810347Y-188652D01*
D02*
G37*
D10*
X761500Y-32001D02*
D03*
D11*
X779225Y-22001D02*
D03*
Y-26001D02*
D03*
Y-30001D02*
D03*
Y-34001D02*
D03*
Y-38001D02*
D03*
Y-42001D02*
D03*
X743775D02*
D03*
Y-38001D02*
D03*
Y-34001D02*
D03*
Y-30001D02*
D03*
Y-26001D02*
D03*
Y-22001D02*
D03*
D12*
X771500Y-49725D02*
D03*
X767500D02*
D03*
X763500D02*
D03*
X759500D02*
D03*
X755500D02*
D03*
X751500D02*
D03*
Y-14276D02*
D03*
X755500D02*
D03*
X759500D02*
D03*
X763500D02*
D03*
X767500D02*
D03*
X771500D02*
D03*
D13*
X768500Y-59725D02*
D03*
X754500D02*
D03*
X768500Y-71218D02*
D03*
X754500D02*
D03*
X811000Y-15000D02*
D03*
X825000D02*
D03*
X812500Y-53231D02*
D03*
X826500D02*
D03*
X826500Y-65493D02*
D03*
X812500D02*
D03*
X834500Y-14500D02*
D03*
X848500D02*
D03*
X881500Y-135000D02*
D03*
X895500D02*
D03*
D14*
X779500Y-57500D02*
D03*
Y-71500D02*
D03*
X818500Y-167500D02*
D03*
Y-181500D02*
D03*
X843500Y-167895D02*
D03*
Y-181895D02*
D03*
D15*
X818000Y-79000D02*
D03*
X827500Y-99000D02*
D03*
X808500D02*
D03*
D16*
X818500Y-150500D02*
D03*
X843500D02*
D03*
D17*
X809500Y-27017D02*
D03*
X826000Y-27017D02*
D03*
X809500Y-39517D02*
D03*
X826000D02*
D03*
D18*
X957000Y-143000D02*
D03*
X972000D02*
D03*
X957000Y-131100D02*
D03*
X972000D02*
D03*
X819387Y-110500D02*
D03*
X834387D02*
D03*
X957000Y-119500D02*
D03*
X972000D02*
D03*
X834387Y-122445D02*
D03*
X819387D02*
D03*
X972500Y-157500D02*
D03*
X957500D02*
D03*
D19*
X809000Y-110500D02*
D03*
Y-125500D02*
D03*
X944500Y-188500D02*
D03*
Y-173500D02*
D03*
D20*
X958700Y-174900D02*
D03*
X958730Y-184390D02*
D03*
X958700Y-193900D02*
D03*
X987300Y-174900D02*
D03*
Y-184300D02*
D03*
D21*
Y-193900D02*
D03*
D22*
X930550Y-183400D02*
D03*
Y-161400D02*
D03*
X857550Y-183400D02*
D03*
Y-161400D02*
D03*
D23*
X871550Y-154900D02*
D03*
X916550D02*
D03*
X901550D02*
D03*
D24*
X852600Y-27195D02*
D03*
X862500Y-17295D02*
D03*
D25*
X763000Y-120500D02*
D03*
Y-184000D02*
D03*
D26*
X792000Y-146000D02*
D03*
Y-158500D02*
D03*
D27*
X840088Y-75985D02*
D03*
X842917Y-78814D02*
D03*
X845745Y-81642D02*
D03*
X848574Y-84471D02*
D03*
X851402Y-87299D02*
D03*
X854230Y-90127D02*
D03*
X857059Y-92956D02*
D03*
X859887Y-95784D02*
D03*
X862716Y-98613D02*
D03*
X865544Y-101441D02*
D03*
X868373Y-104270D02*
D03*
X871201Y-107098D02*
D03*
X874029Y-109926D02*
D03*
X876858Y-112755D02*
D03*
X879686Y-115583D02*
D03*
X882515Y-118412D02*
D03*
X941912Y-59015D02*
D03*
X939083Y-56186D02*
D03*
X936255Y-53358D02*
D03*
X933427Y-50529D02*
D03*
X930598Y-47701D02*
D03*
X927770Y-44873D02*
D03*
X924941Y-42044D02*
D03*
X922113Y-39216D02*
D03*
X919284Y-36387D02*
D03*
X916456Y-33559D02*
D03*
X913627Y-30730D02*
D03*
X910799Y-27902D02*
D03*
X907971Y-25074D02*
D03*
X905142Y-22245D02*
D03*
X902314Y-19417D02*
D03*
X899485Y-16588D02*
D03*
D28*
Y-118412D02*
D03*
X902314Y-115583D02*
D03*
X905142Y-112755D02*
D03*
X907971Y-109926D02*
D03*
X910799Y-107098D02*
D03*
X913627Y-104270D02*
D03*
X916456Y-101441D02*
D03*
X919284Y-98613D02*
D03*
X922113Y-95784D02*
D03*
X924941Y-92956D02*
D03*
X927770Y-90127D02*
D03*
X930598Y-87299D02*
D03*
X933427Y-84471D02*
D03*
X936255Y-81642D02*
D03*
X939083Y-78814D02*
D03*
X941912Y-75985D02*
D03*
X882515Y-16588D02*
D03*
X879686Y-19417D02*
D03*
X876858Y-22245D02*
D03*
X874029Y-25074D02*
D03*
X871201Y-27902D02*
D03*
X868373Y-30730D02*
D03*
X865544Y-33559D02*
D03*
X862716Y-36387D02*
D03*
X859887Y-39216D02*
D03*
X857059Y-42044D02*
D03*
X854230Y-44873D02*
D03*
X851402Y-47701D02*
D03*
X848574Y-50529D02*
D03*
X845745Y-53358D02*
D03*
X842917Y-56186D02*
D03*
X840088Y-59015D02*
D03*
D29*
X870494Y-138950D02*
D03*
X860594Y-129050D02*
D03*
D30*
X943956Y-78030D02*
Y-75009D01*
X850281Y-122000D02*
X850480D01*
X844500Y-119273D02*
Y-116008D01*
X844265Y-119508D02*
X844500Y-119273D01*
X844265Y-149735D02*
Y-119508D01*
X840952Y-117455D02*
Y-109545D01*
Y-117455D02*
X840968Y-117471D01*
Y-117810D02*
Y-117471D01*
X840733Y-118045D02*
X840968Y-117810D01*
X840733Y-136077D02*
Y-118045D01*
X850480Y-122000D02*
X850561Y-122081D01*
X844484Y-115992D02*
X844500Y-116008D01*
X843500Y-150500D02*
X844265Y-149735D01*
X837826Y-138984D02*
X840733Y-136077D01*
X840968Y-101029D02*
Y-92076D01*
X840952Y-101045D02*
X840968Y-101029D01*
X840952Y-108955D02*
Y-101045D01*
Y-108955D02*
X840968Y-108971D01*
Y-109529D02*
Y-108971D01*
X844532Y-102460D02*
Y-94169D01*
X844484Y-102508D02*
X844532Y-102460D01*
X844484Y-107492D02*
Y-102508D01*
Y-107492D02*
X844532Y-107540D01*
Y-110960D02*
Y-107540D01*
X840952Y-109545D02*
X840968Y-109529D01*
X844484Y-111008D02*
X844532Y-110960D01*
X844484Y-115992D02*
Y-111008D01*
X844532Y-94169D02*
X851402Y-87299D01*
X849227Y-102653D02*
X850500Y-103926D01*
X849227Y-102653D02*
Y-95462D01*
X849931Y-94758D01*
Y-94554D01*
X854230Y-90254D01*
X840968Y-92076D02*
X848574Y-84471D01*
X859315Y-17050D02*
X866006D01*
X802000Y-14492D02*
Y-11942D01*
X748781Y-7227D02*
X771999D01*
X753924Y-60225D02*
X754500Y-60802D01*
X834387Y-93000D02*
X845745Y-81642D01*
X817500Y-78000D02*
X818000D01*
X810000Y-67500D02*
X812984Y-70484D01*
X808500Y-98500D02*
X810484Y-100484D01*
X871854Y-17115D02*
X876858Y-22118D01*
X871854Y-17115D02*
Y-8674D01*
X802000Y-11942D02*
X806458Y-7484D01*
X841984D01*
X788825Y-18688D02*
Y-18055D01*
X739525Y-34001D02*
X743775D01*
X737000Y-36526D02*
X739525Y-34001D01*
X744090Y-12992D02*
Y-11918D01*
X740566Y-16516D02*
X744090Y-12992D01*
X739492Y-16516D02*
X740566D01*
X733468Y-15106D02*
X738074Y-10500D01*
X744090Y-11918D02*
X748781Y-7227D01*
X737707Y-18301D02*
X739492Y-16516D01*
X737707Y-23506D02*
Y-18301D01*
Y-23506D02*
X740114Y-25913D01*
X779225Y-30001D02*
X783999D01*
X789498Y-35500D01*
X953965Y-65000D02*
X962000D01*
X825000Y-15000D02*
X834000D01*
X788825Y-18055D02*
X789498Y-18729D01*
X794841Y-15984D02*
Y-11000D01*
Y-15984D02*
X795984Y-17127D01*
X788825Y-18055D02*
Y-18021D01*
X801889Y-3952D02*
X867132D01*
X794841Y-11000D02*
X801889Y-3952D01*
X795984Y-24500D02*
Y-17127D01*
Y-24500D02*
X802484Y-31000D01*
X833982Y-42589D02*
Y-37008D01*
X954557Y-54949D02*
X959014Y-50492D01*
X945978Y-54949D02*
X954557D01*
X941912Y-59015D02*
X945978Y-54949D01*
X833982Y-42589D02*
X834484Y-43091D01*
X933427Y-50529D02*
X947635Y-36321D01*
X959014Y-50492D02*
Y-41516D01*
X958998Y-41500D02*
X959014Y-41516D01*
X952456Y-36825D02*
X954739Y-34543D01*
X952456Y-39598D02*
Y-36825D01*
X948932Y-43122D02*
X952456Y-39598D01*
X946160Y-43122D02*
X948932D01*
X940555Y-48727D02*
X946160Y-43122D01*
X844967Y-29952D02*
X857059Y-42044D01*
X842842Y-33484D02*
X854230Y-44873D01*
X843074Y-39500D02*
X851275Y-47701D01*
X837506Y-33484D02*
X842842D01*
X836043Y-29952D02*
X844967D01*
X840119Y-45526D02*
X843444D01*
X837913Y-47732D02*
X840119Y-45526D01*
X835527Y-30469D02*
X836043Y-29952D01*
X828952Y-30469D02*
X835527D01*
X833982Y-37008D02*
X837506Y-33484D01*
X839998Y-39500D02*
X843074D01*
X850561Y-122081D02*
X868373Y-104270D01*
X824000Y-67500D02*
X826500Y-65000D01*
Y-53500D02*
X828858Y-51142D01*
X848830Y-26950D02*
X853050D01*
X854245Y-112741D02*
X865544Y-101441D01*
X851259Y-112741D02*
X854245D01*
X850500Y-113500D02*
X851259Y-112741D01*
X834387Y-110500D02*
Y-93000D01*
X786313Y-41516D02*
X791990D01*
X785241Y-40443D02*
X786313Y-41516D01*
X798000Y-141500D02*
Y-47526D01*
X791990Y-41516D02*
X798000Y-47526D01*
X779500Y-76485D02*
Y-71500D01*
X777485Y-78500D02*
X779500Y-76485D01*
X748000Y-78500D02*
X777485D01*
X737000Y-67500D02*
X748000Y-78500D01*
X769576Y-59725D02*
X771500Y-57802D01*
X769576Y-59725D02*
X777275D01*
X768500D02*
X769576D01*
X777275D02*
X779500Y-57500D01*
X931502Y-127801D02*
X932373D01*
X910799Y-107098D02*
X931502Y-127801D01*
X932032Y-118159D02*
X932373Y-118500D01*
X927517Y-118159D02*
X932032D01*
X913627Y-104270D02*
X927517Y-118159D01*
X886500Y-177500D02*
Y-141310D01*
X885000Y-139810D02*
Y-139000D01*
X881500Y-135500D02*
X885000Y-139000D01*
X881500Y-135500D02*
Y-135000D01*
X914532Y-132990D02*
Y-116614D01*
X907971Y-110053D02*
X914532Y-116614D01*
X907971Y-110053D02*
Y-109926D01*
X914532Y-132990D02*
X927576Y-146034D01*
X905142Y-112755D02*
X911000Y-118613D01*
Y-134792D02*
Y-118613D01*
Y-134792D02*
X926224Y-150016D01*
X881500Y-135000D02*
X882515Y-133985D01*
Y-118412D01*
X895500Y-138500D02*
X898484Y-135516D01*
X898984D01*
X907317Y-127183D01*
Y-120918D01*
X906614Y-120214D02*
X907317Y-120918D01*
X906614Y-120214D02*
Y-120010D01*
X902314Y-115710D02*
X906614Y-120010D01*
X902314Y-115710D02*
Y-115583D01*
X852874Y-55160D02*
X858532Y-60819D01*
X848700Y-50529D02*
X856171Y-58000D01*
X740114Y-25913D02*
X743688D01*
X743775Y-26001D01*
X733468Y-28169D02*
Y-15106D01*
Y-28169D02*
X735300Y-30001D01*
X743775D01*
Y-38001D02*
X779225D01*
X737000Y-67500D02*
Y-36526D01*
X785512Y-22001D02*
X788825Y-18688D01*
X779225Y-22001D02*
X785512D01*
X771588Y-7638D02*
X771999Y-7227D01*
X788980Y-26001D02*
X789500Y-26521D01*
X742848Y-48500D02*
X743998D01*
X742500Y-48152D02*
X742848Y-48500D01*
X943956Y-75009D02*
X953965Y-65000D01*
X979295Y-60681D02*
Y-51575D01*
X975270Y-64705D02*
X979295Y-60681D01*
X987000Y-57971D02*
Y-55900D01*
X978802Y-66168D02*
X987000Y-57971D01*
X972124Y-82382D02*
Y-73486D01*
X956150Y-98356D02*
X972124Y-82382D01*
X975656Y-83845D02*
Y-74949D01*
X957613Y-101888D02*
X975656Y-83845D01*
X959076Y-105420D02*
X979188Y-85308D01*
X960539Y-108952D02*
X987000Y-82491D01*
X978642Y-95844D02*
X985156D01*
X962002Y-112484D02*
X978642Y-95844D01*
X979188Y-85308D02*
Y-76412D01*
X987000Y-82491D02*
Y-81300D01*
X985156Y-95844D02*
X987000Y-94000D01*
X962084Y-134584D02*
X965000Y-137500D01*
Y-147310D02*
Y-137500D01*
X962294Y-150016D02*
X965000Y-147310D01*
X926224Y-150016D02*
X962294D01*
X953966Y-146034D02*
X957000Y-143000D01*
X927576Y-146034D02*
X953966D01*
X947747Y-47522D02*
X952192D01*
X971500Y-60000D02*
Y-44000D01*
X954498Y-33000D02*
Y-32500D01*
X939083Y-36074D02*
Y-35000D01*
X951979Y-47310D02*
Y-47000D01*
Y-47310D02*
X952192Y-47522D01*
X959484Y-134584D02*
X962084D01*
X873000Y-181500D02*
X882500D01*
X865500Y-174000D02*
X873000Y-181500D01*
X851887Y-174000D02*
X865500D01*
X882500Y-181500D02*
X886500Y-177500D01*
X927625Y-112484D02*
X962002D01*
X916582Y-101441D02*
X927625Y-112484D01*
X929624Y-108952D02*
X960539D01*
X919284Y-98613D02*
X929624Y-108952D01*
X931748Y-105420D02*
X959076D01*
X922113Y-95784D02*
X931748Y-105420D01*
X933873Y-101888D02*
X957613D01*
X924941Y-92956D02*
X933873Y-101888D01*
X927770Y-90127D02*
X935998Y-98356D01*
X821871Y-131471D02*
Y-124929D01*
Y-131471D02*
X822500Y-132100D01*
X914756Y-8756D02*
X918000Y-12000D01*
Y-13000D02*
Y-12000D01*
X828000Y-83500D02*
Y-77000D01*
X771588Y-14189D02*
Y-7638D01*
X847381Y-25500D02*
X848830Y-26950D01*
X843444Y-45526D02*
X848447Y-50529D01*
X836500Y-25500D02*
X847381D01*
X831542Y-46033D02*
X834484Y-43091D01*
X834500Y-23500D02*
X836500Y-25500D01*
X834387Y-122445D02*
X834707Y-122765D01*
Y-131000D02*
Y-122765D01*
X954739Y-34543D02*
Y-32259D01*
X978802Y-71803D02*
Y-66168D01*
X975270Y-70339D02*
Y-64705D01*
X972124Y-73486D02*
X975270Y-70339D01*
X970244Y-61224D02*
X970276D01*
X971500Y-60000D01*
X975656Y-74949D02*
X978802Y-71803D01*
X935998Y-98356D02*
X956150D01*
X958000Y-87500D02*
X958498D01*
X952482Y-85008D02*
X958490Y-79000D01*
X952482Y-85317D02*
Y-85008D01*
X947799Y-90000D02*
X952482Y-85317D01*
X948950Y-83545D02*
X956998Y-75497D01*
X948950Y-83854D02*
Y-83545D01*
X947439Y-85365D02*
X948950Y-83854D01*
X958490Y-79000D02*
X962998D01*
X956998Y-75497D02*
Y-72500D01*
X754500Y-60802D02*
Y-59725D01*
Y-71218D02*
Y-60802D01*
X751500Y-57802D02*
X753924Y-60225D01*
X746500D02*
X753924D01*
X742500Y-48152D02*
X743775Y-46876D01*
Y-42001D01*
X768500Y-71218D02*
Y-59725D01*
X751500Y-57802D02*
Y-49725D01*
X771500Y-14276D02*
X771588Y-14189D01*
X771500Y-57802D02*
Y-49725D01*
X779074D01*
X785241Y-43558D01*
Y-40443D01*
X783038Y-38240D02*
X785241Y-40443D01*
X781843Y-38240D02*
X783038D01*
X781604Y-38001D02*
X781843Y-38240D01*
X779225Y-38001D02*
X781604D01*
X804500Y-64303D02*
Y-48049D01*
X779225Y-26001D02*
X788980D01*
X826500Y-53500D02*
Y-53231D01*
Y-65000D02*
Y-53500D01*
X828000Y-83500D02*
X831000Y-86500D01*
X941912Y-75985D02*
X943956Y-78030D01*
X945635Y-85365D02*
X947439D01*
X939083Y-78814D02*
X945635Y-85365D01*
X951299Y-94201D02*
X958000Y-87500D01*
X944613Y-90000D02*
X947799D01*
X936255Y-81642D02*
X944613Y-90000D01*
X943157Y-94201D02*
X951299D01*
X933427Y-84471D02*
X943157Y-94201D01*
X804500Y-64303D02*
X805690Y-65493D01*
X812500D01*
X802484Y-46033D02*
X804500Y-48049D01*
X802484Y-46033D02*
Y-31000D01*
X867132Y-3952D02*
X871854Y-8674D01*
X876858Y-22245D02*
Y-22118D01*
X891000Y-27201D02*
Y-10600D01*
X871201Y-47000D02*
X891000Y-27201D01*
Y-10600D02*
X892844Y-8756D01*
X914756D01*
X859887Y-39216D02*
X867672Y-47000D01*
X871201D01*
X845745Y-53358D02*
X855000Y-62613D01*
X852874Y-55160D02*
Y-54956D01*
X848574Y-50656D02*
X852874Y-54956D01*
X841984Y-7484D02*
X848500Y-14000D01*
Y-14500D02*
Y-14000D01*
X818000Y-88000D02*
Y-79000D01*
X808500Y-97500D02*
X818000Y-88000D01*
X811000Y-15000D02*
X822516Y-26516D01*
X812983Y-53017D02*
Y-44842D01*
X812500Y-53500D02*
X812983Y-53017D01*
X866006Y-17050D02*
X874029Y-25074D01*
X856765Y-14500D02*
X859315Y-17050D01*
X848500Y-14500D02*
X856765D01*
X834500Y-23500D02*
Y-14500D01*
X937000Y-38157D02*
X939083Y-36074D01*
X937000Y-41299D02*
Y-38157D01*
X930598Y-47701D02*
X937000Y-41299D01*
X933624Y-22048D02*
X969369D01*
X931499Y-18516D02*
X953613D01*
X975900Y-15517D02*
Y-11000D01*
X969369Y-22048D02*
X975900Y-15517D01*
X835500Y-71397D02*
X840088Y-75985D01*
X835500Y-71397D02*
Y-71000D01*
X831000Y-86500D02*
X835230D01*
X842917Y-78814D01*
X810000Y-67500D02*
Y-67000D01*
X818000Y-79000D02*
Y-78000D01*
X816016Y-76516D02*
X817500Y-78000D01*
X816016Y-76516D02*
Y-76016D01*
X812984Y-72984D02*
X816016Y-76016D01*
X812984Y-72984D02*
Y-70484D01*
X826000Y-99500D02*
X827500Y-98000D01*
X823000Y-99500D02*
X826000D01*
X827500Y-98000D02*
X828988Y-96511D01*
X808500Y-98500D02*
Y-97500D01*
X825000Y-15000D02*
Y-14500D01*
X936255Y-53231D02*
X940555Y-48931D01*
X936255Y-53358D02*
Y-53231D01*
X850500Y-105000D02*
Y-103926D01*
X946998Y-34000D02*
X947635Y-34637D01*
Y-36321D02*
Y-34637D01*
X886500Y-108770D02*
Y-107000D01*
X872309Y-125809D02*
Y-122960D01*
X886358Y-58000D02*
X913627Y-30730D01*
X858532Y-74037D02*
Y-60819D01*
X851275Y-47701D02*
X851402D01*
X848447Y-50529D02*
X848574D01*
X845745Y-81642D02*
X851887Y-75500D01*
X872309Y-122960D02*
X879686Y-115583D01*
X886500Y-108770D01*
X842917Y-56186D02*
Y-56060D01*
X858532Y-74037D02*
X890032Y-105537D01*
X851887Y-75500D02*
X855000D01*
X856171Y-58000D02*
X886358D01*
X855000Y-75500D02*
X886500Y-107000D01*
X837913Y-51056D02*
X842917Y-56060D01*
X848574Y-50656D02*
Y-50529D01*
X848700D01*
X855000Y-75500D02*
Y-62613D01*
X837913Y-51056D02*
Y-47732D01*
X940555Y-48931D02*
Y-48727D01*
X872309Y-125809D02*
X873000Y-126500D01*
X854230Y-90254D02*
Y-90127D01*
X890032Y-110894D02*
Y-105537D01*
X882515Y-118412D02*
X890032Y-110894D01*
X939083Y-56186D02*
X947747Y-47522D01*
X954498Y-32500D02*
X954739Y-32259D01*
X844000Y-181895D02*
X846984Y-178911D01*
X843500Y-181895D02*
X844000D01*
X846984Y-178911D02*
Y-178903D01*
X816903Y-108016D02*
Y-106403D01*
Y-108016D02*
X819387Y-110500D01*
X810984Y-100484D02*
X816903Y-106403D01*
X810484Y-100484D02*
X810984D01*
X812484Y-115542D02*
Y-112984D01*
Y-115542D02*
X819387Y-122445D01*
X809000Y-110500D02*
X810000D01*
X812484Y-112984D01*
X819387Y-122445D02*
X821871Y-124929D01*
X827142Y-138984D02*
X837826D01*
X818500Y-147626D02*
X827142Y-138984D01*
X822516Y-26516D02*
Y-24033D01*
X834000Y-15000D02*
X834500Y-14500D01*
X822516Y-24033D02*
X828952Y-30469D01*
X835768Y-47732D02*
X837913D01*
X832358Y-51142D02*
X835768Y-47732D01*
X828858Y-51142D02*
X832358D01*
X814174Y-46033D02*
X831542D01*
X812983Y-44842D02*
X814174Y-46033D01*
X812983Y-44842D02*
Y-42501D01*
X809999Y-39517D02*
X812983Y-42501D01*
X809500Y-39517D02*
X809999D01*
X818500Y-150500D02*
Y-147626D01*
X843500Y-167895D02*
X843500Y-167895D01*
X843500Y-167895D02*
Y-150500D01*
X818500Y-167500D02*
X818500Y-167500D01*
X818500Y-167500D02*
Y-150500D01*
X846984Y-178903D02*
X851887Y-174000D01*
X843105Y-181500D02*
X843500Y-181895D01*
X818500Y-181500D02*
X843105D01*
X860594Y-129018D02*
X876858Y-112755D01*
X860594Y-129050D02*
Y-129018D01*
X919284Y-36387D02*
X933624Y-22048D01*
X960810Y-18500D02*
X962000Y-17310D01*
Y-12200D01*
X963200Y-11000D01*
X953629Y-18500D02*
X960810D01*
X953613Y-18516D02*
X953629Y-18500D01*
X916456Y-33559D02*
X931499Y-18516D01*
X936362Y-12438D02*
X937800Y-11000D01*
X931920Y-12438D02*
X936362D01*
X913627Y-30730D02*
X931920Y-12438D01*
X979295Y-51575D02*
X987000Y-43870D01*
Y-43200D01*
X979188Y-76412D02*
X987000Y-68600D01*
X916456Y-101441D02*
X916582D01*
X957000Y-132100D02*
X959484Y-134584D01*
X957000Y-132100D02*
Y-131100D01*
D31*
X852195Y-128414D02*
X859958Y-120651D01*
X852195Y-135198D02*
Y-128414D01*
X859958Y-120651D02*
X863305D01*
X857000Y-149500D02*
Y-140003D01*
X852195Y-135198D02*
X857000Y-140003D01*
X863305Y-120651D02*
X874029Y-109926D01*
X943500Y-174000D02*
X944500D01*
X916550Y-153900D02*
X937899D01*
X938979Y-154980D01*
Y-168479D02*
Y-154980D01*
X940889Y-171389D02*
X943500Y-174000D01*
X940889Y-171389D02*
Y-170389D01*
X938979Y-168479D02*
X940889Y-170389D01*
D32*
X874164Y-138950D02*
X884140D01*
X905844Y-142921D02*
X907133Y-141633D01*
X886500Y-141310D02*
X888111Y-142921D01*
X885000Y-139810D02*
X886500Y-141310D01*
X884140Y-138950D02*
X885000Y-139810D01*
X888111Y-142921D02*
X905844D01*
X873810Y-138596D02*
X874164Y-138950D01*
X870847Y-138596D02*
X873810D01*
X870494Y-138950D02*
X870847Y-138596D01*
X894000Y-153500D02*
X900150D01*
X901550Y-154900D01*
X895498Y-122000D02*
X896838D01*
X896919Y-122081D01*
X974998Y-107000D02*
X976498D01*
X972000Y-109998D02*
X974998Y-107000D01*
X896919Y-122081D02*
Y-120978D01*
X899022Y-118875D01*
X805500Y-190805D02*
X881447D01*
X796232D02*
X805500D01*
X809000Y-187305D01*
Y-125500D01*
X793000Y-187573D02*
Y-159500D01*
Y-187573D02*
X796232Y-190805D01*
X919000Y-185000D02*
Y-177889D01*
Y-190268D02*
Y-185000D01*
X792000Y-158500D02*
X793000Y-159500D01*
X881447Y-190805D02*
X887252Y-185000D01*
X919000D01*
Y-190268D02*
X921732Y-193000D01*
X939673D01*
X941905Y-190768D01*
Y-190095D01*
X943500Y-188500D01*
X944500D01*
X919000Y-177889D02*
X925889Y-171000D01*
X932500D01*
X947500Y-128000D02*
Y-127407D01*
X972000Y-119500D02*
Y-109998D01*
X986900Y-119500D02*
X987000Y-119400D01*
X972000Y-119500D02*
X986900D01*
X947998Y-162498D02*
Y-157500D01*
Y-162498D02*
X957167Y-171667D01*
X949055Y-122445D02*
X951000Y-120500D01*
X949055Y-125852D02*
Y-122445D01*
X951000Y-120500D02*
X957000D01*
X947500Y-127407D02*
X949055Y-125852D01*
X957167Y-174895D02*
X957172Y-174900D01*
X958700D01*
X957167Y-174895D02*
Y-171667D01*
X987000Y-157500D02*
X987000Y-157500D01*
X972500Y-157500D02*
X987000D01*
X976076Y-167924D02*
X977484D01*
X957500Y-160328D02*
X969000Y-171828D01*
X957500Y-160328D02*
Y-157500D01*
X957000Y-120500D02*
Y-119500D01*
X984460Y-174900D02*
X987300D01*
X969000Y-191768D02*
Y-171828D01*
X977484Y-167924D02*
X984460Y-174900D01*
X966768Y-194000D02*
X969000Y-191768D01*
X961640Y-194000D02*
X966768D01*
X961540Y-193900D02*
X961640Y-194000D01*
X958700Y-193900D02*
X961540D01*
X987000Y-132100D02*
X987000Y-132100D01*
X972000Y-132100D02*
X987000D01*
X986700Y-144500D02*
X987000Y-144800D01*
X972000Y-144500D02*
X986700D01*
D33*
X907133Y-141633D02*
X907500Y-142000D01*
D34*
X735500Y-81501D02*
D03*
X987000Y-157500D02*
D03*
D35*
X735500Y-94201D02*
D03*
X987000Y-43200D02*
D03*
Y-55900D02*
D03*
Y-68600D02*
D03*
Y-81300D02*
D03*
Y-94000D02*
D03*
Y-106700D02*
D03*
Y-119400D02*
D03*
Y-132100D02*
D03*
Y-144800D02*
D03*
X975900Y-11000D02*
D03*
X963200D02*
D03*
X950500D02*
D03*
X937800D02*
D03*
D36*
X988600D02*
D03*
D37*
X850281Y-122000D02*
D03*
X738074Y-10500D02*
D03*
X770856Y-5500D02*
D03*
X962000Y-65000D02*
D03*
X830000Y-15000D02*
D03*
X788825Y-18021D02*
D03*
X800857Y-13492D02*
D03*
X936998Y-35221D02*
D03*
X952998Y-48000D02*
D03*
X958498Y-40500D02*
D03*
X946440Y-37106D02*
D03*
X839998Y-39500D02*
D03*
X916857Y-12000D02*
D03*
X953355Y-32000D02*
D03*
X745357Y-59225D02*
D03*
X850500Y-113500D02*
D03*
X932373Y-127801D02*
D03*
Y-118500D02*
D03*
X789498Y-35500D02*
D03*
X789500Y-26521D02*
D03*
X761500Y-32001D02*
D03*
X743998Y-48500D02*
D03*
X857000Y-149500D02*
D03*
X971500Y-44000D02*
D03*
X895498Y-122000D02*
D03*
X894000Y-153500D02*
D03*
X907500Y-142000D02*
D03*
X822500Y-132100D02*
D03*
X828000Y-77000D02*
D03*
X970244Y-61224D02*
D03*
X976498Y-107000D02*
D03*
X958498Y-87500D02*
D03*
X956998Y-72500D02*
D03*
X962998Y-79000D02*
D03*
X823000Y-99500D02*
D03*
X835500Y-71000D02*
D03*
X850500Y-105000D02*
D03*
X873000Y-126500D02*
D03*
X798000Y-141500D02*
D03*
X834707Y-131000D02*
D03*
X947500Y-128000D02*
D03*
X947998Y-157500D02*
D03*
X932500Y-171000D02*
D03*
X976076Y-167924D02*
D03*
X993000Y-184500D02*
D03*
Y-193500D02*
D03*
X909050Y-172400D02*
D03*
X879050D02*
D03*
M02*
