M48
;Layer_Color=9474304
;FILE_FORMAT=4:4
METRIC,LZ
;TYPE=PLATED
T1F00S00C0.4000
T2F00S00C0.6000
%
T01
X00798Y-001415
X008225Y-001321
X00834707Y-00131
X00850281Y-00122
X008505Y-001135
Y-00105
X00823Y-000995
X00873Y-001265
X00895498Y-00122
X009075Y-00142
X00894Y-001535
X0087905Y-001724
X0090905
X009325Y-00171
X00947998Y-001575
X009475Y-00128
X00932373Y-00127801
Y-001185
X00976498Y-00107
X00958498Y-000875
X00976076Y-00167924
X00993Y-001845
Y-001935
X00857Y-001495
X008355Y-00071
X00828Y-00077
X00839998Y-000395
X0083Y-00015
X00800857Y-00013492
X00788825Y-00018021
X007895Y-00026521
X00789498Y-000355
X007615Y-00032001
X00743998Y-000485
X00745357Y-00059225
X00738074Y-000105
X00770856Y-000055
X00916857Y-00012
X00936998Y-00035221
X0094644Y-00037106
X00953355Y-00032
X00958498Y-000405
X00952998Y-00048
X009715Y-00044
X00970244Y-00061224
X00962Y-00065
X00956998Y-000725
X00962998Y-00079
T02
X007355Y-00094201
X00987Y-00094
Y-001067
Y-001194
Y-001321
Y-001448
Y-001575
Y-000813
Y-000686
Y-000559
Y-000432
X009886Y-00011
X009759
X009632
X009505
X009378
X007355Y-00081501
M30
